<svg width="30" height="30" viewBox="0 0 30 30" fill="none" xmlns="http://www.w3.org/2000/svg">
<path d="M16.2875 2.1308L2.55 0.0277079C1.9125 -0.0730392 1.2625 0.103268 0.775 0.51885C0.2875 0.947026 0 1.5641 0 2.20637V28.7406C0 29.4333 0.5625 30 1.25 30H5.3125V23.3885C5.3125 22.1669 6.2875 21.1846 7.5 21.1846H10.625C11.8375 21.1846 12.8125 22.1669 12.8125 23.3885V30H18.125V4.30946C18.125 3.22643 17.35 2.30711 16.2875 2.1308ZM6.875 18.3511H5C4.4825 18.3511 4.0625 17.928 4.0625 17.4066C4.0625 16.8852 4.4825 16.4621 5 16.4621H6.875C7.3925 16.4621 7.8125 16.8852 7.8125 17.4066C7.8125 17.928 7.3925 18.3511 6.875 18.3511ZM6.875 14.5731H5C4.4825 14.5731 4.0625 14.1499 4.0625 13.6286C4.0625 13.1072 4.4825 12.6841 5 12.6841H6.875C7.3925 12.6841 7.8125 13.1072 7.8125 13.6286C7.8125 14.1499 7.3925 14.5731 6.875 14.5731ZM6.875 10.7951H5C4.4825 10.7951 4.0625 10.3719 4.0625 9.85056C4.0625 9.32919 4.4825 8.90605 5 8.90605H6.875C7.3925 8.90605 7.8125 9.32919 7.8125 9.85056C7.8125 10.3719 7.3925 10.7951 6.875 10.7951ZM6.875 7.01704H5C4.4825 7.01704 4.0625 6.5939 4.0625 6.07254C4.0625 5.55117 4.4825 5.12803 5 5.12803H6.875C7.3925 5.12803 7.8125 5.55117 7.8125 6.07254C7.8125 6.5939 7.3925 7.01704 6.875 7.01704ZM13.125 18.3511H11.25C10.7325 18.3511 10.3125 17.928 10.3125 17.4066C10.3125 16.8852 10.7325 16.4621 11.25 16.4621H13.125C13.6425 16.4621 14.0625 16.8852 14.0625 17.4066C14.0625 17.928 13.6425 18.3511 13.125 18.3511ZM13.125 14.5731H11.25C10.7325 14.5731 10.3125 14.1499 10.3125 13.6286C10.3125 13.1072 10.7325 12.6841 11.25 12.6841H13.125C13.6425 12.6841 14.0625 13.1072 14.0625 13.6286C14.0625 14.1499 13.6425 14.5731 13.125 14.5731ZM13.125 10.7951H11.25C10.7325 10.7951 10.3125 10.3719 10.3125 9.85056C10.3125 9.32919 10.7325 8.90605 11.25 8.90605H13.125C13.6425 8.90605 14.0625 9.32919 14.0625 9.85056C14.0625 10.3719 13.6425 10.7951 13.125 10.7951ZM13.125 7.01704H11.25C10.7325 7.01704 10.3125 6.5939 10.3125 6.07254C10.3125 5.55117 10.7325 5.12803 11.25 5.12803H13.125C13.6425 5.12803 14.0625 5.55117 14.0625 6.07254C14.0625 6.5939 13.6425 7.01704 13.125 7.01704Z" fill="white"/>
<path d="M28.275 13.4297L19.375 11.552V30.0001H27.8125C29.0187 30.0001 30 29.0115 30 27.7962V15.5831C30 14.5429 29.2962 13.6576 28.275 13.4297ZM25.3125 26.2221H23.4375C22.92 26.2221 22.5 25.7989 22.5 25.2775C22.5 24.7562 22.92 24.333 23.4375 24.333H25.3125C25.83 24.333 26.25 24.7562 26.25 25.2775C26.25 25.7989 25.83 26.2221 25.3125 26.2221ZM25.3125 22.444H23.4375C22.92 22.444 22.5 22.0209 22.5 21.4995C22.5 20.9782 22.92 20.555 23.4375 20.555H25.3125C25.83 20.555 26.25 20.9782 26.25 21.4995C26.25 22.0209 25.83 22.444 25.3125 22.444ZM25.3125 18.666H23.4375C22.92 18.666 22.5 18.2429 22.5 17.7215C22.5 17.2001 22.92 16.777 23.4375 16.777H25.3125C25.83 16.777 26.25 17.2001 26.25 17.7215C26.25 18.2429 25.83 18.666 25.3125 18.666Z" fill="white"/>
</svg>
