<svg width="30" height="30" viewBox="0 0 30 30" fill="none" xmlns="http://www.w3.org/2000/svg">
<path d="M13.2 2.4V10.8C13.2 11.4365 12.9471 12.047 12.4971 12.4971C12.047 12.9471 11.4365 13.2 10.8 13.2H2.4C1.76348 13.2 1.15303 12.9471 0.702944 12.4971C0.252856 12.047 0 11.4365 0 10.8V2.4C0 1.76348 0.252856 1.15303 0.702944 0.702944C1.15303 0.252856 1.76348 0 2.4 0H10.8C11.4365 0 12.047 0.252856 12.4971 0.702944C12.9471 1.15303 13.2 1.76348 13.2 2.4ZM27.6 0H19.2C18.5635 0 17.953 0.252856 17.5029 0.702944C17.0529 1.15303 16.8 1.76348 16.8 2.4V10.8C16.8 11.4365 17.0529 12.047 17.5029 12.4971C17.953 12.9471 18.5635 13.2 19.2 13.2H27.6C28.2365 13.2 28.847 12.9471 29.2971 12.4971C29.7471 12.047 30 11.4365 30 10.8V2.4C30 1.76348 29.7471 1.15303 29.2971 0.702944C28.847 0.252856 28.2365 0 27.6 0ZM10.8 16.8H2.4C1.76348 16.8 1.15303 17.0529 0.702944 17.5029C0.252856 17.953 0 18.5635 0 19.2V27.6C0 28.2365 0.252856 28.847 0.702944 29.2971C1.15303 29.7471 1.76348 30 2.4 30H10.8C11.4365 30 12.047 29.7471 12.4971 29.2971C12.9471 28.847 13.2 28.2365 13.2 27.6V19.2C13.2 18.5635 12.9471 17.953 12.4971 17.5029C12.047 17.0529 11.4365 16.8 10.8 16.8ZM23.4 16.8C22.0946 16.8 20.8186 17.1871 19.7332 17.9123C18.6479 18.6375 17.8019 19.6683 17.3024 20.8743C16.8029 22.0803 16.6722 23.4073 16.9268 24.6876C17.1815 25.9679 17.8101 27.1439 18.7331 28.0669C19.6561 28.9899 20.8321 29.6185 22.1124 29.8732C23.3927 30.1278 24.7197 29.9971 25.9257 29.4976C27.1317 28.9981 28.1625 28.1521 28.8877 27.0668C29.6129 25.9814 30 24.7054 30 23.4C30 21.6496 29.3046 19.9708 28.0669 18.7331C26.8292 17.4954 25.1504 16.8 23.4 16.8Z" fill="white"/>
</svg>
