<svg width="31" height="30" viewBox="0 0 31 30" fill="none" xmlns="http://www.w3.org/2000/svg">
<path fill-rule="evenodd" clip-rule="evenodd" d="M9.96454 0C12.8951 0 15.2743 2.40165 15.2743 5.35986C15.2743 8.31806 12.8951 10.7197 9.96454 10.7197C7.03397 10.7197 4.65474 8.31806 4.65474 5.35986C4.65474 2.40165 7.03397 0 9.96454 0ZM17.4509 15.1218C18.8814 13.9439 20.7081 13.2365 22.6965 13.2365C27.2789 13.2365 31 16.9926 31 21.6182C31 26.2439 27.2789 30 22.6965 30C18.1141 30 14.3931 26.2439 14.3931 21.6182C14.3931 18.6913 15.8866 16.4104 17.4509 15.1218ZM21.5916 25.7231C21.627 26.3076 22.1086 26.7713 22.6965 26.7713C23.2733 26.7713 23.7483 26.3243 23.7992 25.7544C23.8823 25.7331 23.9631 25.7085 24.0406 25.6806C25.0636 25.3152 25.8031 24.5206 25.8031 23.1381C25.8031 21.7848 24.8853 21.0885 23.5977 20.7097C23.1516 20.5778 22.66 20.4817 22.2304 20.3364C22.1053 20.2939 21.9869 20.2492 21.8839 20.1889C21.8496 20.1688 21.8042 20.1576 21.8042 20.1118C21.8042 19.7709 22.0688 19.6446 22.35 19.6055C22.9202 19.525 23.6055 19.6971 24.0616 20.019C24.562 20.3722 25.2529 20.2481 25.6027 19.743C25.9526 19.2367 25.8308 18.5393 25.3293 18.1862C24.8997 17.8833 24.3639 17.6486 23.8014 17.5078C23.7627 16.9256 23.2822 16.4651 22.6965 16.4651C22.1186 16.4651 21.6425 16.9133 21.5938 17.4844C20.9772 17.6553 20.4546 17.9895 20.097 18.4756C19.7892 18.8925 19.5899 19.4289 19.5899 20.1118C19.5899 21.4651 20.5077 22.1614 21.7953 22.5402C22.2415 22.6721 22.7331 22.7682 23.1626 22.9135C23.2877 22.956 23.4062 23.0018 23.5092 23.061C23.5435 23.0811 23.5889 23.0923 23.5889 23.1381C23.5889 23.4756 23.3265 23.5941 23.0486 23.6321C22.4707 23.7114 21.7787 23.5349 21.317 23.2208C20.81 22.8755 20.1213 23.0107 19.7792 23.5226C19.4382 24.0333 19.5722 24.7284 20.0782 25.0738C20.5044 25.3643 21.0336 25.5867 21.5916 25.7231ZM14.5403 28.3192C10.9576 28.3236 6.06966 28.3236 3.32951 28.3236C1.557 28.3236 0.0966915 26.92 0.0103354 25.133C0.0103354 25.1229 0.0103352 25.1118 0.00922809 25.1017C-0.0284143 23.232 0.0291565 20.3308 0.562793 17.0608C0.845111 15.333 2.30984 13.1605 3.80225 12.243C3.86315 12.2061 3.92293 12.1692 3.98272 12.1334C4.36246 11.9043 4.84185 11.9256 5.20056 12.1893C6.57783 13.1996 8.27284 13.7953 10.104 13.7953C11.9352 13.7953 13.6302 13.1996 15.0075 12.1893C15.364 11.9278 15.839 11.9055 16.2187 12.1301C16.2807 12.167 16.3427 12.205 16.4058 12.243C16.6106 12.3681 16.8143 12.5168 17.0147 12.6833C16.6804 12.9012 16.3582 13.137 16.0515 13.3907C14.0698 15.0224 12.1788 17.9124 12.1788 21.6182C12.1788 24.1585 13.0645 26.4908 14.5403 28.3192Z" fill="white"/>
</svg>
