<svg width="536" height="358" viewBox="0 0 536 358" fill="none" xmlns="http://www.w3.org/2000/svg">
<path d="M526.852 297.653H153.133C148.463 297.653 144.674 293.865 144.674 289.191V9.18295C144.674 4.50894 148.463 0.720978 153.133 0.720978H526.852C531.524 0.720978 535.311 4.50894 535.311 9.18295V289.191C535.311 293.865 531.524 297.653 526.852 297.653Z" fill="white"/>
<path d="M153.133 1.15237C148.707 1.15237 145.106 4.75497 145.106 9.18304V289.191C145.106 293.619 148.707 297.222 153.133 297.222H526.852C531.278 297.222 534.88 293.619 534.88 289.191V9.18304C534.88 4.75497 531.278 1.15237 526.852 1.15237H153.133ZM526.852 298.084H153.133C148.233 298.084 144.243 294.095 144.243 289.191V9.18304C144.243 4.27878 148.233 0.289795 153.133 0.289795H526.852C531.753 0.289795 535.742 4.27878 535.742 9.18304V289.191C535.742 294.095 531.753 298.084 526.852 298.084Z" fill="black"/>
<path d="M166.721 16.3277C166.721 19.7293 163.963 22.4888 160.558 22.4888C157.154 22.4888 154.396 19.7293 154.396 16.3277C154.396 12.9261 157.154 10.1686 160.558 10.1686C163.963 10.1686 166.721 12.9261 166.721 16.3277Z" fill="white"/>
<path d="M160.558 10.6C157.398 10.6 154.827 13.1702 154.827 16.3278C154.827 19.4874 157.398 22.0576 160.558 22.0576C163.719 22.0576 166.29 19.4874 166.29 16.3278C166.29 13.1702 163.719 10.6 160.558 10.6ZM160.558 22.9182C156.922 22.9182 153.965 19.9636 153.965 16.3278C153.965 12.694 156.922 9.73737 160.558 9.73737C164.195 9.73737 167.152 12.694 167.152 16.3278C167.152 19.9636 164.195 22.9182 160.558 22.9182Z" fill="black"/>
<path d="M184.706 16.3277C184.706 19.7293 181.948 22.4888 178.544 22.4888C175.139 22.4888 172.381 19.7293 172.381 16.3277C172.381 12.9261 175.139 10.1686 178.544 10.1686C181.948 10.1686 184.706 12.9261 184.706 16.3277Z" fill="white"/>
<path d="M178.544 10.6C175.383 10.6 172.812 13.1702 172.812 16.3278C172.812 19.4874 175.383 22.0576 178.544 22.0576C181.704 22.0576 184.275 19.4874 184.275 16.3278C184.275 13.1702 181.704 10.6 178.544 10.6ZM178.544 22.9182C174.907 22.9182 171.95 19.9636 171.95 16.3278C171.95 12.694 174.907 9.73737 178.544 9.73737C182.18 9.73737 185.137 12.694 185.137 16.3278C185.137 19.9636 182.18 22.9182 178.544 22.9182Z" fill="black"/>
<path d="M202.691 16.3277C202.691 19.7293 199.931 22.4888 196.529 22.4888C193.124 22.4888 190.366 19.7293 190.366 16.3277C190.366 12.9261 193.124 10.1686 196.529 10.1686C199.931 10.1686 202.691 12.9261 202.691 16.3277Z" fill="white"/>
<path d="M196.529 10.6C193.368 10.6 190.795 13.1702 190.795 16.3278C190.795 19.4874 193.368 22.0576 196.529 22.0576C199.689 22.0576 202.26 19.4874 202.26 16.3278C202.26 13.1702 199.689 10.6 196.529 10.6ZM196.529 22.9182C192.892 22.9182 189.935 19.9636 189.935 16.3278C189.935 12.694 192.892 9.73737 196.529 9.73737C200.163 9.73737 203.123 12.694 203.123 16.3278C203.123 19.9636 200.163 22.9182 196.529 22.9182Z" fill="black"/>
<path d="M151.772 286.859H528.214V32.5354H151.772V286.859ZM528.643 287.721H151.343C151.105 287.721 150.911 287.528 150.911 287.29V32.1041C150.911 31.866 151.105 31.6748 151.343 31.6748H528.643C528.881 31.6748 529.074 31.866 529.074 32.1041V287.29C529.074 287.528 528.881 287.721 528.643 287.721Z" fill="black"/>
<path d="M420.996 108.847H186.156C181.538 108.847 177.796 105.102 177.796 100.485V56.0594C177.796 51.4401 181.538 47.697 186.156 47.697H420.996C425.613 47.697 429.355 51.4401 429.355 56.0594V100.485C429.355 105.102 425.613 108.847 420.996 108.847Z" fill="white"/>
<path d="M186.156 48.1264C181.784 48.1264 178.228 51.6861 178.228 56.0576V100.485C178.228 104.858 181.784 108.416 186.156 108.416H420.996C425.368 108.416 428.926 104.858 428.926 100.485V56.0576C428.926 51.6861 425.368 48.1264 420.996 48.1264H186.156ZM420.996 109.279H186.156C181.308 109.279 177.365 105.332 177.365 100.485V56.0576C177.365 51.2099 181.308 47.2658 186.156 47.2658H420.996C425.844 47.2658 429.786 51.2099 429.786 56.0576V100.485C429.786 105.332 425.844 109.279 420.996 109.279Z" fill="black"/>
<path d="M200.573 79.2127C200.573 90.8577 210.011 100.299 221.652 100.299C233.295 100.299 242.733 90.8577 242.733 79.2127C242.733 67.5658 233.295 58.1242 221.652 58.1242C210.011 58.1242 200.573 67.5658 200.573 79.2127Z" fill="white"/>
<path d="M221.652 58.5556C210.267 58.5556 201.004 67.8216 201.004 79.2128C201.004 90.6021 210.267 99.8681 221.652 99.8681C233.039 99.8681 242.302 90.6021 242.302 79.2128C242.302 67.8216 233.039 58.5556 221.652 58.5556ZM221.652 100.731C209.791 100.731 200.142 91.0764 200.142 79.2128C200.142 67.3473 209.791 57.693 221.652 57.693C233.513 57.693 243.162 67.3473 243.162 79.2128C243.162 91.0764 233.513 100.731 221.652 100.731Z" fill="black"/>
<mask id="mask0_1_244" style="mask-type:luminance" maskUnits="userSpaceOnUse" x="203" y="60" width="38" height="38">
<path d="M203.189 79.2128C203.189 89.4116 211.457 97.6804 221.652 97.6804C231.849 97.6804 240.115 89.4116 240.115 79.2128C240.115 69.012 231.849 60.7432 221.652 60.7432C211.457 60.7432 203.189 69.012 203.189 79.2128Z" fill="white"/>
</mask>
<g mask="url(#mask0_1_244)">
<path d="M205.362 93.6541C206.164 90.8849 208.402 88.7655 211.211 88.1195L217.149 86.7495V79.2458H226.155V86.7495L232.095 88.1195C234.904 88.7655 237.142 90.8849 237.942 93.6541L240.209 105.629H203.097L205.362 93.6541Z" fill="white"/>
<path d="M203.616 105.2H239.688L237.518 93.7342C236.771 91.1562 234.653 89.15 231.997 88.5392L226.059 87.1712C225.862 87.1263 225.723 86.9506 225.723 86.7496V79.6772H217.58V86.7496C217.58 86.9506 217.442 87.1263 217.247 87.1712L211.307 88.5392C208.659 89.1481 206.544 91.1465 205.782 93.7538L203.616 105.2ZM240.209 106.06H203.097C202.968 106.06 202.848 106.004 202.766 105.904C202.684 105.807 202.65 105.676 202.674 105.549L204.941 93.5742C204.943 93.5606 204.945 93.5469 204.949 93.5332C205.793 90.6157 208.154 88.3811 211.113 87.6981L216.72 86.4081V79.2459C216.72 79.0078 216.911 78.8146 217.149 78.8146H226.155C226.393 78.8146 226.586 79.0078 226.586 79.2459V86.4081L232.193 87.6981C235.15 88.3811 237.513 90.6157 238.355 93.5332L240.632 105.549C240.655 105.676 240.622 105.807 240.54 105.904C240.458 106.004 240.337 106.06 240.209 106.06Z" fill="black"/>
<path d="M214.184 73.5395C214.508 73.4594 214.838 73.4907 215.142 73.6078C215.401 69.4802 218.216 66.6797 221.652 66.6797C225.089 66.6797 227.905 69.4802 228.162 73.6078C228.468 73.4907 228.798 73.4594 229.122 73.5395C230.086 73.7795 230.64 74.8958 230.357 76.0335C230.074 77.1732 229.061 77.8992 228.098 77.6611C227.942 77.6221 227.799 77.5577 227.666 77.4777C226.673 80.526 224.354 82.8601 221.652 82.8601C218.95 82.8601 216.632 80.526 215.639 77.4777C215.507 77.5577 215.362 77.6221 215.208 77.6611C214.243 77.8992 213.232 77.1732 212.949 76.0335C212.666 74.8958 213.218 73.7795 214.184 73.5395Z" fill="white"/>
<path d="M215.639 77.0465C215.69 77.0465 215.739 77.0563 215.788 77.0738C215.911 77.1187 216.008 77.2183 216.049 77.3432C217.04 80.3857 219.291 82.4289 221.652 82.4289C224.013 82.4289 226.266 80.3857 227.257 77.3432C227.298 77.2183 227.393 77.1187 227.518 77.0738C227.641 77.027 227.778 77.0407 227.891 77.109C227.994 77.1734 228.096 77.2163 228.201 77.2417C228.542 77.3256 228.909 77.2456 229.231 77.0133C229.574 76.7675 229.826 76.381 229.937 75.9302C230.05 75.4794 230.01 75.0208 229.82 74.6422C229.645 74.2851 229.36 74.0431 229.017 73.9592C228.79 73.9026 228.554 73.9201 228.316 74.0099C228.189 74.0587 228.045 74.0431 227.93 73.9689C227.815 73.8948 227.741 73.7698 227.733 73.6332C227.497 69.855 224.939 67.1111 221.652 67.1111C218.367 67.1111 215.809 69.855 215.573 73.6332C215.563 73.7698 215.491 73.8948 215.376 73.9689C215.261 74.0431 215.117 74.0587 214.988 74.0099C214.752 73.9182 214.516 73.9026 214.287 73.9592C213.946 74.0431 213.661 74.2851 213.486 74.6422C213.296 75.0208 213.255 75.4794 213.367 75.9302C213.48 76.381 213.731 76.7675 214.075 77.0133C214.397 77.2456 214.76 77.3275 215.105 77.2417C215.208 77.2163 215.314 77.1714 215.413 77.109C215.483 77.068 215.561 77.0465 215.639 77.0465ZM221.652 83.2915C219.04 83.2915 216.568 81.2073 215.386 78.0574C215.36 78.0652 215.337 78.073 215.312 78.0789C214.721 78.2253 214.102 78.0965 213.571 77.714C213.062 77.3471 212.694 76.787 212.532 76.139C212.37 75.4892 212.434 74.8218 212.713 74.2597C213.004 73.6723 213.488 73.2702 214.081 73.1219C214.301 73.0673 214.529 73.0517 214.758 73.0751C215.214 69.09 218.049 66.2486 221.652 66.2486C225.257 66.2486 228.092 69.09 228.548 73.0751C228.777 73.0517 229.005 73.0673 229.225 73.1219C229.816 73.2702 230.302 73.6723 230.593 74.2597C230.872 74.8218 230.936 75.4892 230.774 76.139C230.612 76.787 230.244 77.3471 229.734 77.714C229.204 78.0965 228.585 78.2253 227.994 78.0789C227.969 78.073 227.944 78.0652 227.92 78.0574C226.738 81.2073 224.264 83.2915 221.652 83.2915Z" fill="black"/>
<path d="M219.447 63.5142C225.027 62.5774 231.514 63.7386 228.771 72.5343L228.059 74.6439L226.919 75.4167C226.919 75.4167 227.239 69.6187 225.423 69.3181C223.706 69.0312 223.597 70.171 221.537 70.1183C219.475 70.171 219.366 69.0312 217.649 69.3181C215.832 69.6187 216.154 75.4167 216.154 75.4167L215.015 74.6439L214.303 72.5343C212.489 65.6999 215.396 63.0068 219.447 63.5142Z" fill="white"/>
<path d="M224.904 68.8401C225.082 68.8401 225.277 68.8557 225.495 68.8928C227.226 69.1797 227.401 72.7725 227.378 74.5855L227.698 74.3689L228.363 72.3959C229.331 69.2929 229.18 66.9764 227.91 65.5205C226.465 63.8617 223.404 63.286 219.518 63.9397C219.477 63.9456 219.436 63.9475 219.393 63.9417C218.152 63.7875 216.429 63.8753 215.288 65.1809C214.04 66.6134 213.841 69.1172 214.719 72.4232L215.376 74.3689L215.696 74.5855C215.673 72.7705 215.848 69.1797 217.579 68.8928C218.587 68.723 219.139 68.9943 219.674 69.2539C220.158 69.49 220.616 69.7125 221.525 69.6871C222.465 69.7144 222.914 69.49 223.398 69.2539C223.819 69.0489 224.251 68.8401 224.904 68.8401ZM216.154 75.8481C216.069 75.8481 215.985 75.8228 215.912 75.774L214.773 75.0012C214.695 74.9485 214.637 74.8704 214.605 74.7826L213.893 72.673C212.68 68.1024 213.632 65.7703 214.641 64.615C215.714 63.3855 217.413 62.841 219.438 63.0791C221.911 62.6712 226.322 62.3902 228.56 64.9546C230.039 66.6505 230.247 69.2441 229.182 72.6632L228.466 74.7826C228.437 74.8704 228.379 74.9485 228.301 75.0012L227.161 75.774C227.025 75.8657 226.849 75.8716 226.707 75.7916C226.564 75.7116 226.48 75.5554 226.49 75.3935C226.609 73.2097 226.33 69.9037 225.353 69.7417C224.619 69.6207 224.264 69.7925 223.774 70.0306C223.271 70.2745 222.653 70.5828 221.525 70.5497C220.419 70.575 219.801 70.2745 219.297 70.0306C218.808 69.7925 218.454 69.6207 217.719 69.7417C216.742 69.9037 216.465 73.2097 216.584 75.3935C216.593 75.5554 216.508 75.7116 216.365 75.7916C216.299 75.8287 216.227 75.8481 216.154 75.8481Z" fill="black"/>
</g>
<path d="M277.831 75.6394L280.309 80.6647L285.851 81.4707C286.946 81.6288 287.383 82.9734 286.591 83.7443L282.58 87.6552L283.528 93.1781C283.713 94.2671 282.57 95.0984 281.592 94.5832L276.635 91.9759L271.678 94.5832C270.701 95.0984 269.558 94.2671 269.743 93.1781L270.691 87.6552L266.68 83.7443C265.888 82.9734 266.325 81.6288 267.419 81.4707L272.962 80.6647L275.439 75.6394C275.929 74.6481 277.342 74.6481 277.831 75.6394Z" fill="#1D7139"/>
<path d="M305.071 75.6394L307.551 80.6647L313.093 81.4707C314.186 81.6288 314.623 82.9734 313.831 83.7443L309.822 87.6552L310.768 93.1781C310.955 94.2671 309.812 95.0984 308.832 94.5832L303.875 91.9759L298.918 94.5832C297.941 95.0984 296.798 94.2671 296.985 93.1781L297.931 87.6552L293.92 83.7443C293.13 82.9734 293.565 81.6288 294.659 81.4707L300.202 80.6647L302.679 75.6394C303.169 74.6481 304.583 74.6481 305.071 75.6394Z" fill="#1D7139"/>
<path d="M332.313 75.6394L334.791 80.6647L340.333 81.4707C341.428 81.6288 341.863 82.9734 341.072 83.7443L337.061 87.6552L338.008 93.1781C338.195 94.2671 337.052 95.0984 336.074 94.5832L331.117 91.9759L326.16 94.5832C325.181 95.0984 324.037 94.2671 324.225 93.1781L325.171 87.6552L321.162 83.7443C320.37 82.9734 320.807 81.6288 321.899 81.4707L327.442 80.6647L329.921 75.6394C330.411 74.6481 331.823 74.6481 332.313 75.6394Z" fill="#1D7139"/>
<path d="M359.553 75.6394L362.031 80.6647L367.573 81.4707C368.668 81.6288 369.105 82.9734 368.313 83.7443L364.302 87.6552L365.25 93.1781C365.435 94.2671 364.292 95.0984 363.314 94.5832L358.357 91.9759L353.4 94.5832C352.423 95.0984 351.279 94.2671 351.465 93.1781L352.413 87.6552L348.402 83.7443C347.61 82.9734 348.047 81.6288 349.141 81.4707L354.684 80.6647L357.161 75.6394C357.651 74.6481 359.063 74.6481 359.553 75.6394Z" fill="#1D7139"/>
<path d="M386.793 75.6394L389.273 80.6647L394.815 81.4707C395.908 81.6288 396.345 82.9734 395.553 83.7443L391.543 87.6552L392.49 93.1781C392.677 94.2671 391.534 95.0984 390.554 94.5832L385.597 91.9759L380.64 94.5832C379.663 95.0984 378.519 94.2671 378.707 93.1781L379.653 87.6552L375.642 83.7443C374.852 82.9734 375.287 81.6288 376.381 81.4707L381.924 80.6647L384.401 75.6394C384.891 74.6481 386.303 74.6481 386.793 75.6394Z" fill="#1D7139"/>
<path d="M393.446 66.3696H269.901C267.517 66.3696 265.584 64.4356 265.584 62.0489C265.584 59.6641 267.517 57.7301 269.901 57.7301H393.446C395.83 57.7301 397.763 59.6641 397.763 62.0489C397.763 64.4356 395.83 66.3696 393.446 66.3696Z" fill="#78E69D"/>
<path d="M420.996 259.037H186.156C181.538 259.037 177.796 255.294 177.796 250.675V206.25C177.796 201.63 181.538 197.887 186.156 197.887H420.996C425.613 197.887 429.355 201.63 429.355 206.25V250.675C429.355 255.294 425.613 259.037 420.996 259.037Z" fill="white"/>
<path d="M186.156 198.319C181.784 198.319 178.228 201.876 178.228 206.25V250.675C178.228 255.048 181.784 258.606 186.156 258.606H420.996C425.368 258.606 428.926 255.048 428.926 250.675V206.25C428.926 201.876 425.368 198.319 420.996 198.319H186.156ZM420.996 259.469H186.156C181.308 259.469 177.365 255.525 177.365 250.675V206.25C177.365 201.4 181.308 197.456 186.156 197.456H420.996C425.844 197.456 429.786 201.4 429.786 206.25V250.675C429.786 255.525 425.844 259.469 420.996 259.469Z" fill="black"/>
<path d="M277.831 225.832L280.309 230.855L285.851 231.661C286.946 231.819 287.383 233.164 286.591 233.936L282.58 237.847L283.528 243.368C283.713 244.457 282.57 245.289 281.592 244.773L276.635 242.168L271.678 244.773C270.701 245.289 269.558 244.457 269.743 243.368L270.691 237.847L266.68 233.936C265.888 233.164 266.325 231.819 267.419 231.661L272.962 230.855L275.439 225.832C275.929 224.84 277.342 224.84 277.831 225.832Z" fill="#1D7139"/>
<path d="M305.071 225.832L307.551 230.855L313.093 231.661C314.186 231.819 314.623 233.164 313.831 233.936L309.822 237.847L310.768 243.368C310.955 244.457 309.812 245.289 308.832 244.773L303.875 242.168L298.918 244.773C297.941 245.289 296.798 244.457 296.985 243.368L297.931 237.847L293.92 233.936C293.13 233.164 293.565 231.819 294.659 231.661L300.202 230.855L302.679 225.832C303.169 224.84 304.583 224.84 305.071 225.832Z" fill="#1D7139"/>
<path d="M332.313 225.832L334.791 230.855L340.333 231.661C341.428 231.819 341.863 233.164 341.072 233.936L337.061 237.847L338.008 243.368C338.195 244.457 337.052 245.289 336.074 244.773L331.117 242.168L326.16 244.773C325.181 245.289 324.037 244.457 324.225 243.368L325.171 237.847L321.162 233.936C320.37 233.164 320.807 231.819 321.899 231.661L327.442 230.855L329.921 225.832C330.411 224.84 331.823 224.84 332.313 225.832Z" fill="#1D7139"/>
<path d="M359.553 225.832L362.031 230.855L367.573 231.661C368.668 231.819 369.105 233.164 368.313 233.936L364.302 237.847L365.25 243.368C365.435 244.457 364.292 245.289 363.314 244.773L358.357 242.168L353.4 244.773C352.423 245.289 351.279 244.457 351.465 243.368L352.413 237.847L348.402 233.936C347.61 233.164 348.047 231.819 349.141 231.661L354.684 230.855L357.161 225.832C357.651 224.84 359.063 224.84 359.553 225.832Z" fill="#78E69D"/>
<path d="M386.793 225.832L389.273 230.855L394.815 231.661C395.908 231.819 396.345 233.164 395.553 233.936L391.543 237.847L392.49 243.368C392.677 244.457 391.534 245.289 390.554 244.773L385.597 242.168L380.64 244.773C379.663 245.289 378.519 244.457 378.707 243.368L379.653 237.847L375.642 233.936C374.852 233.164 375.287 231.819 376.381 231.661L381.924 230.855L384.401 225.832C384.891 224.84 386.303 224.84 386.793 225.832Z" fill="#78E69D"/>
<path d="M393.446 216.56H269.901C267.517 216.56 265.584 214.626 265.584 212.241C265.584 209.854 267.517 207.92 269.901 207.92H393.446C395.83 207.92 397.763 209.854 397.763 212.241C397.763 214.626 395.83 216.56 393.446 216.56Z" fill="white"/>
<path d="M269.901 208.351C267.757 208.351 266.015 210.096 266.015 212.241C266.015 214.386 267.757 216.128 269.901 216.128H393.444C395.588 216.128 397.332 214.386 397.332 212.241C397.332 210.096 395.588 208.351 393.444 208.351H269.901ZM393.444 216.991H269.901C267.283 216.991 265.152 214.86 265.152 212.241C265.152 209.62 267.283 207.489 269.901 207.489H393.444C396.064 207.489 398.194 209.62 398.194 212.241C398.194 214.86 396.064 216.991 393.444 216.991Z" fill="black"/>
<path d="M242.764 228.894C242.764 240.458 233.392 249.832 221.831 249.832C210.273 249.832 200.901 240.458 200.901 228.894C200.901 217.329 210.273 207.953 221.831 207.953C233.392 207.953 242.764 217.329 242.764 228.894Z" fill="white"/>
<path d="M221.831 208.385C210.528 208.385 201.33 217.584 201.33 228.894C201.33 240.201 210.528 249.403 221.831 249.403C233.137 249.403 242.333 240.201 242.333 228.894C242.333 217.584 233.137 208.385 221.831 208.385ZM221.831 250.263C210.052 250.263 200.469 240.677 200.469 228.894C200.469 217.11 210.052 207.522 221.831 207.522C233.611 207.522 243.195 217.11 243.195 228.894C243.195 240.677 233.611 250.263 221.831 250.263Z" fill="black"/>
<mask id="mask1_1_244" style="mask-type:luminance" maskUnits="userSpaceOnUse" x="203" y="210" width="38" height="38">
<path d="M240.166 228.894C240.166 239.022 231.956 247.234 221.831 247.234C211.706 247.234 203.499 239.022 203.499 228.894C203.499 218.765 211.706 210.553 221.831 210.553C231.956 210.553 240.166 218.765 240.166 228.894Z" fill="white"/>
</mask>
<g mask="url(#mask1_1_244)">
<path d="M210.825 248.292H232.84L231.722 225.947C231.379 219.075 227.034 213.693 221.831 213.693C216.63 213.693 212.286 219.075 211.942 225.947L210.825 248.292ZM233.293 249.153H210.372C210.253 249.153 210.14 249.104 210.06 249.02C209.978 248.934 209.935 248.819 209.941 248.7L211.082 225.904C211.449 218.574 216.17 212.832 221.831 212.832C227.495 212.832 232.216 218.574 232.583 225.904L233.722 248.7C233.728 248.819 233.685 248.934 233.605 249.02C233.523 249.104 233.41 249.153 233.293 249.153Z" fill="black"/>
<path d="M238.008 243.234C237.212 240.484 234.99 238.38 232.202 237.738L226.303 236.38V228.927H217.362V236.38L211.463 237.738C208.673 238.38 206.451 240.484 205.657 243.234L203.405 255.127H240.257L238.008 243.234Z" fill="white"/>
<path d="M203.926 254.695H239.738L237.589 243.335C236.832 240.746 234.733 238.765 232.105 238.158L226.207 236.799C226.01 236.755 225.872 236.579 225.872 236.38V229.358H217.791V236.38C217.791 236.579 217.653 236.755 217.458 236.799L211.56 238.158C208.924 238.765 206.821 240.755 206.07 243.355L203.926 254.695ZM240.257 255.558H203.405C203.279 255.558 203.156 255.499 203.074 255.402C202.992 255.302 202.959 255.171 202.982 255.047L205.233 243.154C206.08 240.217 208.427 237.996 211.365 237.319L216.931 236.036V228.927C216.931 228.689 217.122 228.496 217.36 228.496H226.303C226.541 228.496 226.734 228.689 226.734 228.927V236.036L232.298 237.319C235.238 237.996 237.583 240.217 238.422 243.115C238.426 243.128 238.428 243.14 238.431 243.154L240.681 255.047C240.704 255.171 240.671 255.302 240.589 255.402C240.507 255.499 240.386 255.558 240.257 255.558Z" fill="black"/>
<path d="M229.321 223.125C228.995 223.043 228.665 223.074 228.359 223.191C228.1 219.052 225.279 216.246 221.831 216.246C218.386 216.246 215.563 219.052 215.304 223.191C214.998 223.074 214.668 223.043 214.344 223.125C213.376 223.365 212.822 224.485 213.105 225.625C213.39 226.767 214.403 227.496 215.37 227.256C215.526 227.217 215.669 227.153 215.801 227.073C216.798 230.129 219.124 232.469 221.831 232.469C224.541 232.469 226.865 230.129 227.862 227.073C227.994 227.153 228.139 227.217 228.295 227.256C229.26 227.496 230.275 226.767 230.558 225.625C230.843 224.485 230.288 223.365 229.321 223.125Z" fill="white"/>
<path d="M215.801 226.641C215.852 226.641 215.903 226.649 215.952 226.669C216.074 226.714 216.172 226.813 216.213 226.938C217.206 229.988 219.465 232.038 221.831 232.038C224.2 232.038 226.457 229.988 227.452 226.938C227.493 226.813 227.588 226.714 227.713 226.669C227.836 226.622 227.973 226.636 228.086 226.704C228.187 226.766 228.293 226.811 228.398 226.837C228.741 226.923 229.108 226.841 229.43 226.608C229.775 226.36 230.027 225.974 230.14 225.521C230.253 225.069 230.21 224.61 230.023 224.227C229.846 223.87 229.559 223.628 229.217 223.542C228.989 223.486 228.753 223.503 228.513 223.593C228.386 223.644 228.242 223.628 228.127 223.554C228.012 223.48 227.938 223.355 227.93 223.218C227.692 219.429 225.128 216.677 221.831 216.677C218.536 216.677 215.973 219.429 215.735 223.218C215.725 223.355 215.653 223.48 215.538 223.554C215.423 223.628 215.278 223.644 215.15 223.593C214.912 223.503 214.676 223.486 214.447 223.542C214.104 223.628 213.819 223.87 213.642 224.227C213.452 224.61 213.411 225.069 213.525 225.521C213.636 225.974 213.888 226.36 214.233 226.608C214.557 226.841 214.921 226.923 215.267 226.837C215.372 226.809 215.476 226.766 215.579 226.704C215.647 226.663 215.725 226.641 215.801 226.641ZM221.831 232.9C219.213 232.9 216.734 230.81 215.55 227.652C215.524 227.66 215.499 227.666 215.474 227.674C214.882 227.82 214.262 227.691 213.729 227.309C213.22 226.94 212.85 226.38 212.688 225.728C212.526 225.078 212.59 224.409 212.869 223.847C213.16 223.257 213.648 222.854 214.239 222.705C214.461 222.651 214.691 222.637 214.92 222.658C215.378 218.664 218.218 215.814 221.831 215.814C225.446 215.814 228.287 218.664 228.745 222.658C228.974 222.635 229.204 222.651 229.424 222.705C230.017 222.854 230.503 223.257 230.796 223.847C231.075 224.409 231.139 225.078 230.977 225.728C230.815 226.38 230.445 226.94 229.933 227.309C229.403 227.691 228.782 227.82 228.189 227.674C228.164 227.666 228.141 227.66 228.115 227.652C226.931 230.81 224.451 232.9 221.831 232.9Z" fill="black"/>
<path d="M215.195 224.231C218.46 223.617 221.863 220.709 223.905 218.088C224.305 220.414 226.363 223.133 228.521 224.089C228.521 224.089 229.549 214.825 221.831 215.124C214.114 215.422 215.195 224.231 215.195 224.231Z" fill="white"/>
<path d="M215.195 224.663C215.105 224.663 215.015 224.634 214.941 224.579C214.845 224.509 214.783 224.401 214.767 224.284C214.76 224.22 214.578 222.684 214.918 220.846C214.96 220.611 215.185 220.457 215.419 220.5C215.655 220.545 215.809 220.769 215.766 221.004C215.557 222.12 215.561 223.135 215.589 223.703C218.706 222.905 221.802 220.084 223.566 217.823C223.671 217.688 223.847 217.629 224.011 217.67C224.176 217.711 224.301 217.846 224.329 218.014C224.67 220.004 226.342 222.323 228.131 223.398C228.148 222.754 228.129 221.698 227.901 220.57C227.854 220.338 228.004 220.11 228.238 220.063C228.474 220.014 228.699 220.166 228.745 220.401C229.141 222.356 228.958 224.064 228.95 224.136C228.935 224.273 228.855 224.394 228.736 224.462C228.617 224.53 228.474 224.538 228.347 224.483C226.35 223.597 224.409 221.273 223.695 219.027C221.679 221.384 218.476 224.052 215.275 224.655C215.247 224.659 215.222 224.663 215.195 224.663Z" fill="black"/>
</g>
<path d="M489.627 183.941H254.787C250.17 183.941 246.428 180.198 246.428 175.579V131.154C246.428 126.536 250.17 122.791 254.787 122.791H489.627C494.245 122.791 497.987 126.536 497.987 131.154V175.579C497.987 180.198 494.245 183.941 489.627 183.941Z" fill="white"/>
<path d="M254.788 123.222C250.416 123.222 246.859 126.78 246.859 131.154V175.579C246.859 179.952 250.416 183.51 254.788 183.51H489.627C493.999 183.51 497.556 179.952 497.556 175.579V131.154C497.556 126.78 493.999 123.222 489.627 123.222H254.788ZM489.627 184.373H254.788C249.94 184.373 245.997 180.428 245.997 175.579V131.154C245.997 126.306 249.94 122.362 254.788 122.362H489.627C494.473 122.362 498.418 126.306 498.418 131.154V175.579C498.418 180.428 494.473 184.373 489.627 184.373Z" fill="black"/>
<path d="M346.463 150.736L348.94 155.759L354.483 156.565C355.577 156.725 356.012 158.07 355.222 158.84L351.211 162.751L352.157 168.272C352.345 169.363 351.201 170.193 350.224 169.679L345.267 167.072L340.31 169.679C339.33 170.193 338.187 169.363 338.374 168.272L339.321 162.751L335.312 158.84C334.52 158.07 334.956 156.725 336.049 156.565L341.591 155.759L344.071 150.736C344.561 149.744 345.973 149.744 346.463 150.736Z" fill="#78E69D"/>
<path d="M373.703 150.736L376.18 155.759L381.723 156.565C382.817 156.725 383.254 158.07 382.462 158.84L378.451 162.751L379.399 168.272C379.585 169.363 378.443 170.193 377.464 169.679L372.507 167.072L367.55 169.679C366.572 170.193 365.429 169.363 365.614 168.272L366.563 162.751L362.552 158.84C361.76 158.07 362.197 156.725 363.291 156.565L368.833 155.759L371.311 150.736C371.801 149.744 373.213 149.744 373.703 150.736Z" fill="#78E69D"/>
<path d="M400.943 150.736L403.422 155.759L408.965 156.565C410.057 156.725 410.494 158.07 409.704 158.84L405.693 162.751L406.639 168.272C406.827 169.363 405.683 170.193 404.704 169.679L399.747 167.072L394.79 169.679C393.812 170.193 392.669 169.363 392.856 168.272L393.803 162.751L389.792 158.84C389.001 158.07 389.437 156.725 390.531 156.565L396.073 155.759L398.553 150.736C399.041 149.744 400.455 149.744 400.943 150.736Z" fill="#78E69D"/>
<path d="M428.185 150.736L430.662 155.759L436.205 156.565C437.299 156.725 437.734 158.07 436.944 158.84L432.933 162.751L433.879 168.272C434.067 169.363 432.923 170.193 431.946 169.679L426.989 167.072L422.032 169.679C421.052 170.193 419.909 169.363 420.096 168.272L421.043 162.751L417.034 158.84C416.241 158.07 416.678 156.725 417.771 156.565L423.313 155.759L425.793 150.736C426.283 149.744 427.695 149.744 428.185 150.736Z" fill="#78E69D"/>
<path d="M455.425 150.736L457.902 155.759L463.445 156.565C464.539 156.725 464.976 158.07 464.184 158.84L460.173 162.751L461.121 168.272C461.307 169.363 460.163 170.193 459.186 169.679L454.229 167.072L449.272 169.679C448.294 170.193 447.151 169.363 447.336 168.272L448.285 162.751L444.274 158.84C443.481 158.07 443.918 156.725 445.013 156.565L450.555 155.759L453.033 150.736C453.523 149.744 454.935 149.744 455.425 150.736Z" fill="#78E69D"/>
<path d="M462.075 141.466H338.532C336.149 141.466 334.213 139.53 334.213 137.145C334.213 134.758 336.149 132.824 338.532 132.824H462.075C464.461 132.824 466.394 134.758 466.394 137.145C466.394 139.53 464.461 141.466 462.075 141.466Z" fill="white"/>
<path d="M338.532 133.255C336.388 133.255 334.644 135 334.644 137.145C334.644 139.29 336.388 141.034 338.532 141.034H462.075C464.219 141.034 465.963 139.29 465.963 137.145C465.963 135 464.219 133.255 462.075 133.255H338.532ZM462.075 141.895H338.532C335.914 141.895 333.784 139.764 333.784 137.145C333.784 134.526 335.914 132.393 338.532 132.393H462.075C464.695 132.393 466.826 134.526 466.826 137.145C466.826 139.764 464.695 141.895 462.075 141.895Z" fill="black"/>
<path d="M311.4 154.001C311.4 165.649 301.969 175.093 290.334 175.093C278.701 175.093 269.271 165.649 269.271 154.001C269.271 142.352 278.701 132.906 290.334 132.906C301.969 132.906 311.4 142.352 311.4 154.001Z" fill="#1D7139"/>
<mask id="mask2_1_244" style="mask-type:luminance" maskUnits="userSpaceOnUse" x="271" y="135" width="38" height="38">
<path d="M308.786 154C308.786 164.203 300.524 172.476 290.334 172.476C280.145 172.476 271.885 164.203 271.885 154C271.885 143.798 280.145 135.525 290.334 135.525C300.524 135.525 308.786 143.798 308.786 154Z" fill="white"/>
</mask>
<g mask="url(#mask2_1_244)">
<path d="M289.234 155.894C290.233 155.894 290.906 156.518 290.906 157.449C290.906 158.954 292.127 160.179 293.629 160.179C295.131 160.179 296.355 158.954 296.355 157.449C296.355 157.16 296.306 156.869 296.212 156.588C296.167 156.452 296.193 156.303 296.279 156.19C296.364 156.077 296.499 156.013 296.643 156.02L296.702 156.024C296.729 156.026 296.757 156.028 296.784 156.028C298.21 156.028 299.367 154.867 299.367 153.44C299.367 153.397 299.365 153.355 299.361 153.31C299.353 153.189 299.396 153.05 299.482 152.962C299.568 152.874 299.671 152.812 299.808 152.814L299.878 152.818C299.899 152.82 299.919 152.822 299.94 152.822C301.909 152.822 303.512 151.218 303.512 149.245C303.512 147.383 302.117 145.853 300.27 145.683C300.124 145.669 299.995 145.583 299.927 145.455C299.86 145.326 299.86 145.172 299.933 145.045C300.178 144.6 300.309 144.094 300.309 143.585C300.309 141.924 298.961 140.574 297.303 140.574C296.998 140.574 296.7 140.619 296.413 140.708C296.275 140.751 296.122 140.72 296.009 140.626C295.898 140.535 295.84 140.39 295.857 140.246C295.873 140.115 295.883 139.984 295.883 139.85C295.883 138.006 294.386 136.507 292.547 136.507C291.068 136.507 289.751 137.502 289.341 138.925C289.3 139.071 289.185 139.184 289.039 139.221C288.891 139.26 288.735 139.219 288.627 139.114C288.097 138.595 287.398 138.31 286.659 138.31C285.211 138.31 283.978 139.442 283.853 140.888C283.84 141.038 283.75 141.171 283.614 141.237C283.477 141.304 283.317 141.294 283.19 141.212C282.734 140.917 282.207 140.761 281.667 140.761C280.114 140.761 278.849 142.028 278.849 143.585C278.849 144.44 279.23 145.24 279.897 145.781C280.024 145.882 280.08 146.048 280.045 146.208C280.012 146.366 279.891 146.493 279.733 146.532C278.213 146.922 277.154 148.288 277.154 149.857C277.154 151.085 277.817 152.229 278.887 152.841C279.08 152.951 279.158 153.191 279.064 153.394C278.922 153.708 278.849 154.041 278.849 154.385C278.849 155.706 279.922 156.783 281.243 156.783C281.505 156.783 281.766 156.739 282.022 156.651C282.168 156.6 282.332 156.633 282.449 156.739C282.566 156.842 282.617 157.002 282.581 157.154C282.542 157.326 282.523 157.498 282.523 157.666C282.523 158.936 283.553 159.97 284.823 159.97C286.091 159.97 287.123 158.936 287.123 157.666C287.123 156.571 288.219 155.894 289.234 155.894ZM293.629 161.04C291.651 161.04 290.044 159.43 290.044 157.449C290.044 157.215 289.973 157.045 289.829 156.93C289.689 156.817 289.478 156.756 289.234 156.756C288.631 156.756 287.985 157.121 287.985 157.666C287.985 159.412 286.567 160.833 284.823 160.833C283.079 160.833 281.661 159.412 281.661 157.666C281.661 157.65 281.661 157.634 281.661 157.617C281.522 157.636 281.384 157.644 281.243 157.644C279.448 157.644 277.987 156.182 277.987 154.385C277.987 154.043 278.04 153.712 278.143 153.39C276.992 152.591 276.292 151.268 276.292 149.857C276.292 148.14 277.306 146.616 278.834 145.937C278.29 145.281 277.987 144.455 277.987 143.585C277.987 141.553 279.638 139.9 281.667 139.9C282.162 139.9 282.65 140 283.102 140.193C283.524 138.612 284.979 137.447 286.659 137.447C287.41 137.447 288.128 137.674 288.735 138.091C289.411 136.624 290.9 135.646 292.547 135.646C294.829 135.646 296.692 137.479 296.743 139.752C296.928 139.725 297.115 139.711 297.303 139.711C299.435 139.711 301.171 141.448 301.171 143.585C301.171 144.04 301.091 144.493 300.933 144.918C302.931 145.371 304.375 147.137 304.375 149.245C304.375 151.598 302.535 153.528 300.221 153.675C300.11 155.341 298.811 156.686 297.168 156.869C297.199 157.061 297.215 157.256 297.215 157.449C297.215 159.43 295.607 161.04 293.629 161.04Z" fill="white"/>
<path d="M300.77 162.911L290.334 160.503L279.899 162.911C277.094 163.557 274.858 165.677 274.056 168.446L271.793 180.427H308.877L306.612 168.446C305.813 165.677 303.577 163.557 300.77 162.911Z" fill="white"/>
<path d="M290.334 166.972C287.851 166.972 285.836 164.956 285.836 162.468L287.281 154.034H293.389L294.835 162.468C294.835 164.956 292.82 166.972 290.334 166.972Z" fill="white"/>
<path d="M297.87 148.189C297.545 148.107 297.211 148.138 296.905 148.257C296.643 144.087 293.803 141.261 290.334 141.261C286.868 141.261 284.027 144.087 283.766 148.257C283.457 148.138 283.126 148.107 282.8 148.189C281.827 148.431 281.269 149.559 281.553 150.708C281.838 151.858 282.859 152.593 283.832 152.349C283.988 152.31 284.134 152.248 284.267 152.166C285.27 155.246 287.609 157.601 290.334 157.601C293.062 157.601 295.401 155.246 296.403 152.166C296.536 152.248 296.68 152.31 296.838 152.349C297.812 152.593 298.832 151.858 299.117 150.708C299.402 149.559 298.844 148.431 297.87 148.189Z" fill="white"/>
<path d="M284.267 151.735C284.318 151.735 284.369 151.744 284.417 151.762C284.54 151.807 284.636 151.906 284.677 152.033C285.678 155.107 287.952 157.172 290.334 157.172C292.718 157.172 294.993 155.107 295.994 152.033C296.035 151.906 296.13 151.807 296.253 151.762C296.376 151.715 296.515 151.729 296.628 151.797C296.731 151.861 296.837 151.906 296.942 151.932C297.287 152.019 297.658 151.936 297.984 151.701C298.331 151.452 298.586 151.061 298.7 150.605C298.926 149.687 298.508 148.792 297.767 148.606C297.535 148.55 297.297 148.567 297.057 148.659C296.93 148.708 296.786 148.694 296.671 148.62C296.556 148.546 296.481 148.421 296.474 148.284C296.234 144.463 293.653 141.692 290.334 141.692C287.018 141.692 284.435 144.463 284.197 148.284C284.187 148.421 284.115 148.546 284 148.62C283.885 148.692 283.74 148.708 283.614 148.659C283.372 148.567 283.134 148.55 282.903 148.606C282.162 148.792 281.745 149.687 281.973 150.605C282.086 151.061 282.34 151.452 282.687 151.701C283.013 151.936 283.383 152.018 283.729 151.932C283.834 151.906 283.939 151.861 284.043 151.797C284.111 151.756 284.189 151.735 284.267 151.735ZM290.334 158.032C287.701 158.032 285.205 155.928 284.013 152.747C283.988 152.755 283.963 152.761 283.937 152.769C283.34 152.917 282.718 152.786 282.184 152.4C281.67 152.031 281.298 151.467 281.136 150.811C280.793 149.434 281.493 148.069 282.695 147.771C282.919 147.716 283.149 147.701 283.381 147.724C283.84 143.698 286.7 140.829 290.334 140.829C293.971 140.829 296.831 143.698 297.289 147.724C297.519 147.701 297.751 147.714 297.974 147.771C299.178 148.069 299.878 149.434 299.535 150.811C299.373 151.467 299 152.031 298.487 152.4C297.952 152.786 297.328 152.915 296.735 152.769C296.708 152.761 296.682 152.755 296.655 152.747C295.465 155.928 292.97 158.032 290.334 158.032Z" fill="#1D7139"/>
<path d="M283.881 148.349C287.166 147.728 290.365 145.755 292.422 143.115C292.824 145.459 294.802 147.385 296.973 148.349C296.973 148.349 298.101 139.828 290.334 140.129C282.568 140.429 283.881 148.349 283.881 148.349Z" fill="#1D7139"/>
</g>
<path d="M450.877 209.559H477.011C477.011 209.559 456.234 183.812 443.296 181.178L450.877 209.559Z" fill="white"/>
<path d="M451.207 209.13H476.098C472.725 205.075 455.366 184.759 443.897 181.759L451.207 209.13ZM477.011 209.991H450.877C450.682 209.991 450.51 209.86 450.462 209.671L442.881 181.289C442.842 181.145 442.881 180.991 442.982 180.883C443.085 180.774 443.238 180.725 443.382 180.756C456.324 183.391 476.494 208.232 477.347 209.29C477.45 209.419 477.471 209.597 477.399 209.747C477.329 209.895 477.177 209.991 477.011 209.991Z" fill="black"/>
<path d="M423.36 278.231H497.331L526.327 206.008H423.36V278.231Z" fill="white"/>
<path d="M423.789 277.8H497.041L525.691 206.439H423.789V277.8ZM497.331 278.66H423.36C423.12 278.66 422.929 278.469 422.929 278.231V206.008C422.929 205.77 423.12 205.576 423.36 205.576H526.327C526.472 205.576 526.604 205.649 526.684 205.768C526.766 205.885 526.782 206.035 526.727 206.17L497.731 278.391C497.665 278.555 497.507 278.66 497.331 278.66Z" fill="black"/>
<path d="M494.017 278.252C493.917 278.653 490.125 281.461 487.119 279.096C487.119 279.096 484.703 281.607 482.093 279.142C482.093 279.142 480.651 281.847 477.479 279.24C477.479 279.24 477.066 281.16 475.195 280.374C473.322 279.589 469.922 273.083 469.873 269.927C469.824 266.773 473.026 270.618 473.026 270.618C473.026 270.618 471.992 265.245 473.125 264.9C474.258 264.554 476.806 267.168 477.479 268.842C477.479 268.842 476.968 264.309 478.348 263.815C479.727 263.321 483.324 267.759 483.767 268.942C483.767 268.942 482.437 264.627 484.161 263.778C485.888 262.927 491.061 271.988 492.244 278.252H494.017Z" fill="white"/>
<path d="M470.519 269.109C470.495 269.109 470.476 269.113 470.458 269.119C470.423 269.133 470.294 269.306 470.304 269.921C470.351 272.973 473.747 279.3 475.361 279.978C475.798 280.159 476.161 280.181 476.438 280.038C476.908 279.796 477.056 279.152 477.058 279.146C477.091 279 477.198 278.881 477.339 278.832C477.481 278.783 477.637 278.811 477.752 278.906C478.74 279.72 479.625 280.056 480.386 279.911C481.266 279.74 481.709 278.947 481.713 278.937C481.777 278.822 481.892 278.74 482.025 278.719C482.156 278.701 482.29 278.738 482.388 278.83C484.651 280.963 486.723 278.885 486.808 278.795C486.963 278.639 487.212 278.621 487.384 278.756C488.285 279.466 489.35 279.73 490.554 279.544C491.457 279.404 492.269 279.027 492.835 278.684H492.244C492.037 278.684 491.857 278.537 491.82 278.332C490.782 272.833 486.668 265.232 484.662 264.23C484.526 264.16 484.409 264.135 484.352 264.164C483.215 264.722 483.863 267.786 484.181 268.815C484.247 269.037 484.128 269.273 483.907 269.349C483.687 269.426 483.445 269.31 483.365 269.092C482.848 267.716 479.405 263.897 478.492 264.221C477.801 264.467 477.71 267.035 477.907 268.795C477.932 269.01 477.793 269.207 477.585 269.26C477.376 269.312 477.159 269.203 477.079 269.004C476.381 267.261 473.972 265.087 473.25 265.312C472.881 265.569 472.973 268.059 473.449 270.536C473.486 270.729 473.388 270.922 473.211 271.006C473.033 271.092 472.823 271.045 472.696 270.893C471.892 269.931 470.882 269.109 470.519 269.109ZM476.028 280.996C475.718 280.996 475.382 280.92 475.027 280.772C472.938 279.896 469.492 273.21 469.442 269.933C469.436 269.601 469.42 268.586 470.16 268.311C470.807 268.067 471.677 268.662 472.364 269.293C472.064 267.236 471.947 264.806 473 264.486C474.11 264.147 475.835 265.64 476.949 267.121C476.941 265.641 477.152 263.786 478.203 263.409C479.413 262.976 481.524 265.06 482.893 266.814C482.751 265.472 482.866 263.934 483.972 263.389C484.188 263.284 484.551 263.21 485.049 263.458C487.396 264.631 491.467 272.427 492.597 277.823H494.017C494.15 277.823 494.274 277.884 494.356 277.987C494.438 278.092 494.468 278.229 494.434 278.358C494.315 278.838 493.039 279.693 491.807 280.116C490.581 280.536 488.804 280.778 487.142 279.648C486.41 280.235 484.372 281.521 482.167 279.779C481.867 280.132 481.34 280.6 480.564 280.754C479.672 280.93 478.701 280.655 477.672 279.929C477.511 280.235 477.249 280.587 476.839 280.799C476.592 280.93 476.319 280.996 476.028 280.996Z" fill="black"/>
<path d="M487.119 279.527C486.961 279.527 486.81 279.439 486.734 279.291C485.242 276.342 483.956 272.011 483.346 269.027C483.297 268.795 483.449 268.567 483.681 268.52C483.915 268.473 484.142 268.622 484.19 268.856C484.789 271.783 486.046 276.024 487.503 278.9C487.61 279.113 487.524 279.373 487.314 279.48C487.251 279.511 487.185 279.527 487.119 279.527Z" fill="black"/>
<path d="M482.093 279.574C481.957 279.574 481.822 279.509 481.738 279.388C479.454 276.09 477.735 272.146 477.025 268.571C476.978 268.337 477.128 268.11 477.362 268.063C477.598 268.015 477.823 268.169 477.868 268.401C478.556 271.867 480.226 275.692 482.446 278.898C482.583 279.094 482.534 279.361 482.337 279.498C482.263 279.55 482.177 279.574 482.093 279.574Z" fill="black"/>
<path d="M477.479 279.669C477.343 279.669 477.206 279.605 477.124 279.484C475.304 276.83 473.585 274.135 472.54 270.331C472.475 270.101 472.61 269.865 472.84 269.8C473.068 269.736 473.306 269.872 473.369 270.101C474.381 273.777 476.059 276.406 477.834 278.996C477.969 279.191 477.918 279.46 477.723 279.595C477.647 279.646 477.563 279.669 477.479 279.669Z" fill="black"/>
<path d="M452.816 277.046L408.623 325.199H479.655C486.635 325.199 494.267 328.702 500.111 332.514C507.819 337.541 525.734 348.372 534.726 353.784C536.228 354.687 535.586 356.994 533.834 356.994H400.004L352.809 265.934L452.816 277.046Z" fill="white"/>
<path d="M400.266 356.563H533.834C534.562 356.563 534.958 356.073 535.087 355.612C535.213 355.152 535.128 354.527 534.503 354.153C524.837 348.337 507.486 337.837 499.877 332.877C495.728 330.17 487.585 325.63 479.655 325.63H408.623C408.454 325.63 408.3 325.529 408.229 325.373C408.161 325.217 408.192 325.033 408.307 324.908L451.925 277.38L353.562 266.451L400.266 356.563ZM533.834 357.425H400.004C399.844 357.425 399.696 357.336 399.622 357.193L352.427 266.133C352.352 265.993 352.364 265.823 352.454 265.69C352.544 265.56 352.694 265.487 352.856 265.507L452.863 276.617C453.025 276.635 453.162 276.742 453.22 276.894C453.277 277.046 453.244 277.216 453.134 277.337L409.605 324.768H479.655C487.807 324.768 496.118 329.395 500.347 332.153C507.944 337.11 525.285 347.601 534.948 353.413C535.803 353.928 536.183 354.88 535.916 355.843C535.648 356.805 534.831 357.425 533.834 357.425Z" fill="black"/>
<path d="M500.712 356.893C500.587 356.893 500.464 356.84 500.379 356.735C495.139 350.324 491.348 345.634 487.684 341.103C484.019 336.569 480.23 331.883 474.992 325.472C474.842 325.287 474.869 325.016 475.052 324.866C475.238 324.715 475.509 324.743 475.659 324.926C480.899 331.339 484.688 336.026 488.353 340.56C492.017 345.091 495.808 349.779 501.046 356.19C501.196 356.373 501.169 356.645 500.985 356.797C500.905 356.861 500.808 356.893 500.712 356.893Z" fill="black"/>
<path d="M464.752 235.687L473.135 251.171C481.163 268.282 468.677 287.932 449.777 287.932H386.818L424.084 347.365C426.919 351.424 424.016 356.994 419.064 356.994H364.233C362.29 356.994 361.231 354.724 362.479 353.235L372.368 341.44L338.523 282.794C325.858 261.721 340.474 248.811 356.834 248.653L419.642 249.26L414.507 240.636L464.752 235.687Z" fill="white"/>
<path d="M419.064 357.425H364.231C363.164 357.425 362.22 356.824 361.769 355.856C361.317 354.888 361.463 353.778 362.15 352.958L371.844 341.395L335.518 278.448C331.882 272.148 331.898 264.634 335.559 258.35C339.192 252.115 345.645 248.407 352.848 248.407C352.907 248.407 352.963 248.407 353.02 248.407L419.018 248.825L416.388 241.858C416.304 241.635 416.417 241.387 416.639 241.304C416.862 241.218 417.11 241.331 417.195 241.553L420.046 249.108C420.094 249.241 420.077 249.391 419.995 249.506C419.915 249.623 419.782 249.691 419.642 249.691H419.64L353.014 249.27C352.959 249.27 352.905 249.268 352.85 249.268C345.956 249.268 339.781 252.818 336.305 258.784C332.799 264.798 332.785 271.988 336.264 278.016L372.741 341.225C372.833 341.382 372.815 341.579 372.698 341.717L362.809 353.512C362.333 354.08 362.238 354.82 362.55 355.491C362.862 356.163 363.492 356.563 364.231 356.563H419.064C421.226 356.563 423.112 355.419 424.111 353.503C425.11 351.586 424.968 349.383 423.731 347.613L386.454 288.161C386.37 288.028 386.366 287.86 386.44 287.723C386.516 287.587 386.66 287.501 386.818 287.501H449.777C458.505 287.501 466.508 283.102 471.188 275.733C475.868 268.366 476.449 259.248 472.743 251.344L464.884 236.458C464.773 236.247 464.855 235.986 465.064 235.874C465.275 235.765 465.536 235.845 465.647 236.054L473.513 250.96C477.354 259.151 476.754 268.577 471.915 276.195C467.077 283.814 458.8 288.363 449.777 288.363H387.597L424.449 347.137C425.861 349.158 426.025 351.694 424.876 353.901C423.727 356.108 421.554 357.425 419.064 357.425Z" fill="black"/>
<path d="M419.047 341.871H372.368C372.13 341.871 371.937 341.68 371.937 341.44C371.937 341.204 372.13 341.011 372.368 341.011H419.047C419.285 341.011 419.478 341.204 419.478 341.44C419.478 341.68 419.285 341.871 419.047 341.871Z" fill="black"/>
<path d="M384.327 288.485H370.538C370.3 288.485 370.109 288.291 370.109 288.053C370.109 287.815 370.3 287.624 370.538 287.624H384.327C384.565 287.624 384.758 287.815 384.758 288.053C384.758 288.291 384.565 288.485 384.327 288.485Z" fill="black"/>
<path d="M375.977 187.907C375.566 187.866 359.223 207.791 356.943 210.633C356.943 210.633 347.809 192.825 347.118 191.9C346.428 190.973 344.51 179.537 342.054 178.233C339.598 176.927 339.75 181.178 339.75 181.178C339.75 181.178 331.999 172.628 329.313 172.398C326.626 172.168 327.184 175.177 327.491 176.02C327.491 176.02 323.753 172.384 321.944 173.471C319.675 174.835 321.176 177.772 321.176 177.772C321.176 177.772 318.757 175.53 317.186 176.697C315.381 178.038 317.262 181.841 318.413 182.993C318.413 182.993 315.381 182.394 316.454 185.45C317.291 187.833 321.56 194.203 323.325 199.117C324.541 202.503 333.846 220.285 341.978 233.605C346.82 241.538 357.278 243.856 365.045 238.755C375.741 231.729 388.547 219.45 394.798 210.473C394.798 210.473 397.293 189.979 375.977 187.907Z" fill="white"/>
<path d="M317.855 183.375C317.496 183.375 317.063 183.444 316.837 183.705C316.521 184.072 316.675 184.778 316.86 185.305C317.196 186.26 318.136 187.938 319.223 189.878C320.766 192.633 322.686 196.062 323.731 198.97C324.886 202.184 334.028 219.754 342.344 233.38C344.619 237.106 348.219 239.684 352.481 240.642C356.761 241.602 361.139 240.806 364.809 238.396C375.304 231.501 387.995 219.45 394.382 210.319C394.476 209.313 395.059 201.25 390.193 195.192C387.058 191.289 382.318 188.988 376.1 188.352C374.53 189.825 359.711 207.873 357.278 210.902C357.187 211.017 357.05 211.076 356.9 211.062C356.754 211.046 356.627 210.961 356.56 210.83C352.895 203.685 347.265 192.815 346.773 192.157C346.515 191.81 346.242 190.764 345.698 188.621C344.824 185.179 343.361 179.416 341.851 178.613C341.236 178.288 340.983 178.446 340.899 178.498C340.298 178.875 340.156 180.456 340.181 181.162C340.187 181.344 340.079 181.508 339.914 181.578C339.746 181.644 339.553 181.601 339.432 181.467C337.307 179.125 331.34 173.003 329.276 172.827C328.651 172.772 328.222 172.909 327.967 173.245C327.44 173.932 327.691 175.311 327.896 175.873C327.965 176.063 327.892 176.274 327.725 176.383C327.557 176.492 327.334 176.469 327.19 176.33C325.836 175.013 323.273 173.174 322.167 173.842C320.264 174.986 321.505 177.47 321.56 177.575C321.655 177.761 321.603 177.989 321.437 178.114C321.271 178.241 321.037 178.229 320.885 178.088C320.861 178.069 318.686 176.115 317.442 177.042C317.1 177.296 316.915 177.679 316.876 178.209C316.765 179.708 317.894 181.863 318.717 182.688C318.852 182.823 318.883 183.028 318.794 183.196C318.704 183.364 318.518 183.451 318.329 183.416C318.226 183.395 318.05 183.375 317.855 183.375ZM356.04 241.901C354.795 241.901 353.539 241.762 352.294 241.483C347.799 240.474 344.007 237.756 341.609 233.829C333.749 220.953 324.217 202.871 322.92 199.261C321.899 196.421 319.999 193.028 318.472 190.299C317.364 188.322 316.408 186.617 316.049 185.592C315.668 184.511 315.715 183.686 316.187 183.139C316.536 182.735 317.04 182.579 317.488 182.53C316.685 181.359 315.914 179.546 316.016 178.147C316.074 177.363 316.38 176.758 316.928 176.35C318.027 175.534 319.394 176.053 320.341 176.623C320.116 175.429 320.286 173.965 321.722 173.102C323.189 172.218 325.493 173.766 326.81 174.843C326.749 174.156 326.812 173.335 327.282 172.72C327.586 172.322 328.197 171.865 329.35 171.968C331.726 172.171 337.309 177.923 339.365 180.124C339.457 179.293 339.721 178.219 340.442 177.768C340.79 177.55 341.387 177.39 342.255 177.852C343.962 178.758 345.251 183.364 346.533 188.41C346.888 189.812 347.292 191.398 347.464 191.642C348.107 192.505 355.265 206.419 357.023 209.846C358.57 207.94 362.678 202.918 366.83 197.914C375.527 187.427 375.693 187.448 376.018 187.477C382.562 188.114 387.558 190.53 390.87 194.659C396.267 201.384 395.272 210.155 395.225 210.525C395.217 210.596 395.192 210.662 395.153 210.719C388.732 219.94 375.89 232.147 365.281 239.116C362.485 240.952 359.296 241.901 356.04 241.901Z" fill="black"/>
<path d="M334.802 184.511C334.672 184.511 334.543 184.451 334.457 184.338C332.257 181.379 329.781 178.598 327.1 176.069C326.927 175.907 326.919 175.634 327.083 175.46C327.245 175.288 327.518 175.278 327.691 175.442C330.409 178.007 332.918 180.825 335.148 183.822C335.29 184.014 335.251 184.283 335.06 184.425C334.984 184.484 334.892 184.511 334.802 184.511Z" fill="black"/>
<path d="M329.03 188.018C328.893 188.018 328.761 187.954 328.677 187.835C326.242 184.363 323.565 181.006 320.721 177.86C320.561 177.683 320.575 177.409 320.752 177.251C320.928 177.091 321.201 177.105 321.361 177.281C324.229 180.456 326.927 183.84 329.383 187.339C329.519 187.534 329.473 187.803 329.278 187.94C329.201 187.993 329.116 188.018 329.03 188.018Z" fill="black"/>
<path d="M324.065 190.298C323.934 190.298 323.803 190.237 323.72 190.122C321.892 187.647 319.911 185.239 317.834 182.969C317.674 182.794 317.686 182.521 317.861 182.361C318.037 182.199 318.31 182.21 318.47 182.386C320.567 184.679 322.567 187.111 324.412 189.611C324.553 189.802 324.512 190.071 324.32 190.214C324.244 190.27 324.155 190.298 324.065 190.298Z" fill="black"/>
<path d="M343.751 187.21C343.611 187.21 343.474 187.142 343.392 187.015C342.106 185.054 340.714 183.135 339.254 181.311C339.106 181.125 339.137 180.854 339.323 180.704C339.508 180.555 339.779 180.587 339.927 180.772C341.404 182.616 342.811 184.558 344.112 186.543C344.243 186.742 344.186 187.009 343.987 187.138C343.915 187.187 343.833 187.21 343.751 187.21Z" fill="black"/>
<path d="M352.208 218.808C352.14 218.808 352.07 218.792 352.007 218.759C351.797 218.648 351.717 218.386 351.826 218.176C353.281 215.42 354.943 212.744 356.767 210.221C356.908 210.028 357.177 209.985 357.37 210.123C357.563 210.264 357.606 210.533 357.466 210.726C355.665 213.217 354.024 215.859 352.589 218.58C352.512 218.726 352.362 218.808 352.208 218.808Z" fill="black"/>
<path d="M407.989 249.762L396.087 212.475C396.087 212.475 386.479 196.802 374.947 187.587C374.947 187.587 379.949 179.917 388.007 177.569C392.236 176.338 431.536 174.279 442.606 177.569L449.787 181.041L449.04 190.973C449.04 190.973 468.377 239.237 473.178 249.844L407.989 249.762Z" fill="#1D7139"/>
<path d="M396.903 166.51L399.79 171.896C400.654 173.51 399.708 175.499 397.911 175.844L393.18 176.049L389.148 176.879C389.148 176.879 407.308 183.032 421.089 176.04L411.963 172.829C411.963 172.829 405.832 158.612 405.479 158.753C405.127 158.895 396.903 166.51 396.903 166.51Z" fill="#E5F5EB"/>
<path d="M390.004 177.16C389.817 177.16 389.645 177.037 389.591 176.847C389.524 176.619 389.657 176.381 389.885 176.315C392.162 175.661 397.343 175.436 397.86 175.417C398.567 175.271 399.148 174.814 399.46 174.16C399.774 173.499 399.757 172.747 399.409 172.101L396.522 166.713C396.411 166.504 396.489 166.243 396.7 166.129C396.908 166.016 397.17 166.096 397.281 166.305L400.168 171.693C400.646 172.583 400.672 173.618 400.238 174.531C399.803 175.444 398.986 176.077 397.993 176.268C397.972 176.272 397.95 176.276 397.929 176.276C397.874 176.278 392.369 176.498 390.123 177.142C390.084 177.154 390.043 177.16 390.004 177.16Z" fill="black"/>
<path d="M387.847 146.592C386.374 143.901 387.271 141.021 388.032 139.686C390.012 136.206 395.74 134.758 398.615 134.362C406.076 133.335 413.413 136.032 418.389 140.65C423.456 145.351 427.295 152.406 435.75 158.477C441.829 162.841 448.755 166.03 454.317 171.047C459.879 176.063 464.005 183.736 462.038 190.988C460.337 197.257 454.338 201.685 448.006 202.949C441.673 204.214 435.091 202.784 429.039 200.522C407.907 192.624 404.07 176.283 400.034 163.696C399.078 160.72 398.627 158.479 398.155 155.431C397.578 151.711 389.649 149.89 387.847 146.592Z" fill="black"/>
<path d="M404.885 162.238C404.24 167.981 397.821 169.896 393.822 169.455C386.633 168.663 387.41 156.061 393.822 144.914C393.822 144.914 399.435 145.716 400.796 148.444C401.51 149.873 395.026 156.783 401.358 157.193C401.358 157.193 402.418 152.131 406.025 152.613C409.632 153.093 409.371 161.51 404.885 162.238Z" fill="white"/>
<path d="M394.046 145.388C389.585 153.273 387.929 162.057 390.114 166.366C390.913 167.944 392.178 168.84 393.869 169.028C397.782 169.459 403.85 167.583 404.458 162.189C404.48 161.998 404.626 161.844 404.817 161.813C407.002 161.457 408.114 158.948 408.081 156.651C408.058 154.99 407.396 153.23 405.968 153.04C402.79 152.617 401.789 157.234 401.78 157.281C401.735 157.492 401.546 157.634 401.331 157.623C399.842 157.527 398.892 157.086 398.426 156.278C397.595 154.83 398.68 152.648 399.55 150.896C399.946 150.101 400.543 148.899 400.412 148.636C399.331 146.475 395.18 145.593 394.046 145.388ZM394.971 169.947C394.558 169.947 394.156 169.925 393.775 169.884C391.805 169.666 390.273 168.585 389.345 166.756C386.978 162.084 388.664 153.015 393.449 144.699C393.537 144.547 393.707 144.463 393.883 144.489C394.121 144.522 399.735 145.355 401.183 148.251C401.505 148.897 401.009 149.896 400.322 151.28C399.542 152.849 398.572 154.801 399.173 155.847C399.446 156.323 400.069 156.62 401.025 156.731C401.538 154.797 403.128 151.795 406.081 152.186C407.786 152.412 408.908 154.161 408.943 156.639C408.978 159.123 407.841 161.981 405.274 162.599C404.488 167.812 399.088 169.947 394.971 169.947Z" fill="black"/>
<path d="M402.074 161.19C402.025 161.19 401.979 161.182 401.93 161.165C401.706 161.087 401.588 160.841 401.666 160.616C402.144 159.26 403.237 158.157 404.591 157.669C404.815 157.585 405.061 157.704 405.141 157.929C405.223 158.153 405.106 158.401 404.882 158.481C403.787 158.875 402.866 159.802 402.48 160.901C402.418 161.079 402.252 161.19 402.074 161.19Z" fill="black"/>
<path d="M411.616 141.14C410.8 140.055 410.672 138.56 411.007 137.241C411.341 135.921 412.088 134.747 412.9 133.658C414.712 131.226 416.907 129.083 419.378 127.335C421.197 126.046 423.2 124.959 425.379 124.514C427.558 124.07 429.939 124.319 431.805 125.537C434.189 127.093 435.442 130.137 435.083 132.973C434.722 135.81 432.863 138.355 430.393 139.77C427.925 141.183 425.007 141.507 422.182 141.801C419.47 142.084 413.635 143.829 411.616 141.14Z" fill="black"/>
<path d="M20.5662 347.509C19.6487 351.967 23.0525 356.145 27.6027 356.145H73.672C75.8445 356.145 77.0909 353.67 75.7978 351.924L70.5995 344.902C60.6878 334.867 40.3045 339.828 21.3241 343.827L20.5662 347.509Z" fill="white"/>
<path d="M20.9879 347.595C20.5769 349.594 21.0796 351.645 22.3678 353.226C23.6559 354.806 25.5641 355.714 27.6027 355.714H73.6718C74.5262 355.714 75.2654 355.259 75.6499 354.496C76.0339 353.733 75.9599 352.867 75.4517 352.182L70.272 345.183C61.0069 335.841 42.3113 339.811 24.2322 343.651C23.3824 343.833 22.5344 344.012 21.6893 344.19L20.9879 347.595ZM73.6718 356.576H27.6027C25.3036 356.576 23.1524 355.554 21.7002 353.77C20.2476 351.988 19.6804 349.674 20.1442 347.422L20.9021 343.739C20.9366 343.571 21.0673 343.44 21.2353 343.405C22.1717 343.208 23.1116 343.009 24.0529 342.808C42.373 338.917 61.3179 334.893 70.9058 344.6C70.9203 344.613 70.9337 344.629 70.9458 344.647L76.1441 351.668C76.8396 352.607 76.9447 353.838 76.4192 354.882C75.8934 355.927 74.8405 356.576 73.6718 356.576Z" fill="black"/>
<path d="M158.377 344.902C145.305 331.953 111.798 333.806 107.991 344.902L108.895 349.354C109.698 353.305 113.172 356.145 117.203 356.145H163.454C165.455 356.145 166.503 353.764 165.149 352.289L158.377 344.902Z" fill="white"/>
<path d="M108.436 344.933L109.317 349.268C110.076 353.003 113.392 355.714 117.203 355.714H163.454C164.207 355.714 164.862 355.286 165.164 354.596C165.469 353.907 165.34 353.136 164.831 352.58L158.067 345.201C149.567 336.792 132.101 334.664 120.121 337.469C113.792 338.95 109.649 341.598 108.436 344.933ZM163.454 356.576H117.203C112.985 356.576 109.313 353.575 108.473 349.44L107.568 344.988C107.553 344.912 107.558 344.836 107.583 344.764C108.844 341.085 113.228 338.197 119.925 336.63C132.136 333.772 149.973 335.97 158.68 344.596C158.686 344.602 158.69 344.606 158.695 344.611L165.467 351.998C166.21 352.808 166.397 353.938 165.955 354.943C165.512 355.95 164.554 356.576 163.454 356.576Z" fill="black"/>
<path d="M115.858 139.215H63.4404L18.8814 340.127C18.3379 342.578 20.2023 344.902 22.7121 344.902H68.9275C71.958 344.902 74.4865 342.586 74.7537 339.567L84.5061 229.331L103.671 340.468C104.113 343.031 106.335 344.902 108.934 344.902H157.139C159.661 344.902 161.532 342.562 160.98 340.099L115.858 139.215Z" fill="#1D7139"/>
<path d="M84.5055 228.763C84.2952 228.763 84.1115 228.609 84.0799 228.394L76.5232 177.099C76.1582 174.621 74.4982 172.472 72.1911 171.494L69.2002 170.226C68.9813 170.134 68.8791 169.88 68.9717 169.662C69.065 169.441 69.3184 169.342 69.5367 169.434L72.5276 170.7C75.1094 171.795 76.967 174.199 77.3755 176.974L84.9322 228.269C84.9669 228.505 84.8042 228.724 84.5686 228.759C84.5477 228.761 84.5262 228.763 84.5055 228.763Z" fill="black"/>
<path d="M112.878 47.0531C112.931 47.4122 119.963 59.2777 119.868 66.8029C119.868 66.8029 108.878 67.6226 105.537 56.3777C102.197 45.1308 112.878 47.0531 112.878 47.0531Z" fill="white"/>
<path d="M111.213 47.3614C109.778 47.3614 107.705 47.6385 106.451 49.0417C105.135 50.5151 104.966 52.9409 105.95 56.2546C108.79 65.8153 117.419 66.3832 119.42 66.3832C119.425 66.3832 119.43 66.3832 119.435 66.3832C119.302 60.146 114.555 51.1806 112.972 48.1927C112.776 47.8219 112.656 47.5936 112.581 47.4453C112.313 47.4121 111.82 47.3614 111.213 47.3614ZM119.453 67.2439C117.318 67.2439 108.136 66.6409 105.124 56.5006C104.049 52.8785 104.28 50.1755 105.811 48.464C108.189 45.806 112.76 46.5944 112.954 46.6295C113.118 46.6588 113.248 46.7798 113.292 46.9359C113.333 47.0335 113.528 47.4004 113.733 47.7888C115.377 50.8937 120.38 60.3412 120.298 66.8087C120.295 67.0331 120.123 67.2166 119.9 67.2341C119.887 67.2341 119.728 67.2439 119.453 67.2439Z" fill="black"/>
<path d="M103.414 72.6575C103.414 72.6575 109.202 74.7925 115.132 73.4323C122.275 71.7949 120.094 64.3399 120.094 64.3399C120.094 64.3399 113.06 66.0261 110.811 61.6058C108.562 57.1855 106.319 53.4717 111.226 51.7153C116.133 49.9589 119.189 45.5581 116.101 39.3931C113.798 34.7952 106.011 34.2274 101.801 36.6532C97.5918 39.0809 95.2375 42.34 95.2375 42.34C95.2375 42.34 93.1524 44.3794 89.7407 47.9059C86.3288 51.4323 87.4459 57.7515 92.5254 58.6609C92.5254 58.6609 89.2676 64.2911 97.7834 64.9586L98.8907 73.3171L103.414 72.6575Z" fill="black"/>
<path d="M93.7426 80.2979L98.4118 67.1366C98.4118 67.1366 100.227 71.4066 104.103 67.1366C104.103 67.1366 98.608 63.9945 100.963 60.9521C103.318 57.9096 106.443 59.988 106.654 62.326C107.095 67.2341 110.923 69.0569 110.923 69.0569L108 78.8576L93.7426 80.2979Z" fill="white"/>
<path d="M98.5136 68.1375L94.376 79.802L107.67 78.4574L110.41 69.2675C109.432 68.6859 106.611 66.6563 106.225 62.3648C106.127 61.2739 105.297 60.2591 104.253 59.9527C103.216 59.6502 102.169 60.0971 101.304 61.2153C100.873 61.7715 100.725 62.3453 100.849 62.9698C101.25 64.9877 104.286 66.7441 104.317 66.7617C104.43 66.8261 104.508 66.9393 104.528 67.0681C104.549 67.1969 104.51 67.3296 104.422 67.4252C103.027 68.963 101.699 69.6363 100.469 69.4275C99.5557 69.2733 98.9121 68.6644 98.5136 68.1375ZM93.7423 80.729C93.6106 80.729 93.4858 80.6685 93.4033 80.5651C93.3124 80.448 93.2872 80.2938 93.3364 80.1552L98.0059 66.992C98.0653 66.8241 98.2213 66.7109 98.3989 66.7051C98.586 66.7051 98.7387 66.8046 98.8081 66.9666C98.814 66.9802 99.4309 68.3815 100.617 68.5786C101.443 68.7191 102.386 68.2605 103.426 67.2222C102.476 66.5958 100.379 65.0228 100.004 63.1396C99.8308 62.2672 100.039 61.4437 100.622 60.6884C101.703 59.2931 103.113 58.7213 104.495 59.1252C105.866 59.5273 106.954 60.8563 107.083 62.2868C107.498 66.8983 111.072 68.6508 111.108 68.6664C111.3 68.7581 111.397 68.9767 111.335 69.1797L108.413 78.9804C108.363 79.1482 108.217 79.2692 108.043 79.2868L93.7858 80.727C93.7714 80.729 93.7568 80.729 93.7423 80.729Z" fill="black"/>
<path d="M105.575 67.7668C105.555 67.7668 105.534 67.7649 105.514 67.763L104.14 67.5659C103.904 67.5327 103.74 67.3141 103.774 67.0799C103.807 66.8438 104.026 66.6779 104.261 66.713L105.635 66.9082C105.871 66.9433 106.034 67.1599 106.001 67.396C105.97 67.6107 105.786 67.7668 105.575 67.7668Z" fill="black"/>
<path d="M105.572 65.5071C105.412 65.5071 105.258 65.4173 105.183 65.2631C104.874 64.6211 104.244 64.1468 103.541 64.0297C103.306 63.9887 103.148 63.7663 103.187 63.5321C103.226 63.2979 103.448 63.1359 103.683 63.1789C104.658 63.3428 105.531 63.9985 105.96 64.8904C106.063 65.1031 105.973 65.3607 105.759 65.4641C105.698 65.4934 105.635 65.5071 105.572 65.5071Z" fill="black"/>
<path d="M166.608 97.9477C166.608 97.9477 184.634 67.7805 191.815 64.738C198.998 61.6955 196.371 69.8296 192.736 75.3428C192.736 75.3428 196.423 75.0793 196.87 78.2408C196.87 78.2408 200.181 78.5297 200.629 80.6334C200.629 80.6334 205.403 82.7197 202.98 86.1642C201.505 88.2601 199.593 86.1544 199.593 86.1544L187.051 115.205C187.051 115.205 169.78 106.386 166.608 97.9477Z" fill="white"/>
<path d="M187.529 114.528C187.473 114.528 187.414 114.517 187.36 114.493C187.141 114.4 187.04 114.146 187.133 113.927L199.197 85.9828C199.256 85.8482 199.379 85.7526 199.523 85.7291C199.666 85.7057 199.814 85.7545 199.911 85.8638C199.919 85.8716 200.702 86.7147 201.527 86.66C201.935 86.6327 202.293 86.3907 202.627 85.9165C203.175 85.1359 203.353 84.3786 203.154 83.6644C202.701 82.0309 200.479 81.0376 200.456 81.0278C200.329 80.9712 200.237 80.858 200.208 80.7234C199.83 78.9514 196.862 78.6723 196.831 78.6704C196.632 78.6528 196.47 78.5006 196.443 78.3015C196.058 75.5693 192.9 75.7645 192.767 75.7723C192.598 75.7899 192.447 75.702 192.364 75.5615C192.282 75.419 192.285 75.2434 192.377 75.1068C195.212 70.8036 196.638 66.2428 195.555 64.9411C194.884 64.1351 193.243 64.6015 191.983 65.1343C186.125 67.6167 172.634 88.7697 167.931 96.7106C167.81 96.9155 167.545 96.9838 167.34 96.8608C167.135 96.7399 167.069 96.4744 167.189 96.2695C167.359 95.9826 184.332 67.4411 191.648 64.342C193.868 63.3994 195.407 63.4169 196.216 64.3908C197.849 66.3521 195.62 71.5257 193.515 74.9253C194.913 75.0541 196.776 75.7645 197.237 77.8546C198.115 77.9893 200.448 78.5181 200.996 80.3311C201.615 80.6395 203.501 81.705 203.983 83.4302C204.256 84.406 204.038 85.4091 203.331 86.4122C202.844 87.105 202.254 87.4778 201.577 87.5207C200.83 87.5675 200.175 87.1909 199.753 86.8708L187.925 114.269C187.855 114.431 187.695 114.528 187.529 114.528Z" fill="black"/>
<path d="M186.696 81.4062C186.622 81.4062 186.548 81.3887 186.482 81.3496C186.275 81.2306 186.205 80.9672 186.322 80.7603C187.65 78.4555 189.587 76.5664 191.928 75.3018C192.137 75.1905 192.399 75.2666 192.512 75.4755C192.625 75.6862 192.547 75.9477 192.338 76.0609C190.169 77.2319 188.298 79.0546 187.069 81.1916C186.989 81.3301 186.844 81.4062 186.696 81.4062Z" fill="black"/>
<path d="M191.019 83.834C190.959 83.834 190.896 83.8203 190.838 83.793C190.621 83.6915 190.53 83.4359 190.629 83.2192C191.694 80.9379 193.532 79.0819 195.801 77.9949C196.014 77.8915 196.273 77.9832 196.376 78.1979C196.478 78.4125 196.388 78.6701 196.174 78.7736C194.113 79.7591 192.377 81.5136 191.412 83.5842C191.337 83.7403 191.181 83.834 191.019 83.834Z" fill="black"/>
<path d="M194.248 86.2578C194.201 86.2578 194.152 86.25 194.106 86.2325C193.881 86.1544 193.764 85.9065 193.842 85.6821C194.759 83.0904 196.96 80.9711 199.584 80.1534C199.81 80.0811 200.052 80.208 200.122 80.4363C200.194 80.6627 200.068 80.9047 199.839 80.975C197.471 81.7146 195.483 83.6291 194.654 85.9709C194.593 86.1466 194.426 86.2578 194.248 86.2578Z" fill="black"/>
<path d="M56.7269 221.688H2.6919C0.977473 221.688 -0.266012 220.055 0.190492 218.402L10.0338 182.739C10.3446 181.615 11.3682 180.835 12.5354 180.835H67.1381C68.8685 180.835 70.1144 182.497 69.6292 184.158L59.218 219.821C58.8947 220.927 57.8799 221.688 56.7269 221.688Z" fill="black"/>
<path d="M92.543 85.7135L91.0193 81.1059C91.0193 81.1059 86.2278 79.8315 76.54 80.7565C67.5141 81.6172 59.5639 87.0562 55.5211 95.1747C45.7898 114.718 26.8661 153.844 20.2697 175.407H48.7288L79.4378 99.8604L92.543 85.7135Z" fill="white"/>
<path d="M20.8533 174.976H48.4388L79.0384 99.6983C79.0581 99.6495 79.0864 99.6065 79.1217 99.5675L92.0543 85.606L90.6865 81.4707C89.6408 81.2443 84.9195 80.3914 76.5809 81.1857C67.6323 82.0386 59.9035 87.341 55.9072 95.3678C45.6337 115.998 27.5052 153.606 20.8533 174.976ZM48.7287 175.838H20.2694C20.1327 175.838 20.0043 175.774 19.9232 175.665C19.842 175.553 19.8176 175.413 19.8576 175.282C26.3819 153.954 44.7609 115.818 55.1356 94.9833C59.2658 86.6872 67.2524 81.2092 76.4992 80.327C86.1531 79.4059 90.9309 80.6374 91.1299 80.6881C91.2704 80.7252 91.3828 80.8325 91.4282 80.9691L92.952 85.5768C93.0012 85.727 92.9657 85.891 92.859 86.0061L79.8071 100.096L49.1279 175.569C49.0619 175.733 48.9041 175.838 48.7287 175.838Z" fill="black"/>
<path d="M167.56 96.4899C164.337 101.427 160.519 107.272 160.519 107.272C160.519 107.272 140.613 86.6755 134.53 82.0405C128.446 77.4056 125.171 72.4252 72.7808 81.3926L60.4492 136.319C59.9343 138.612 61.6778 140.792 64.0272 140.792H119.117C121.084 140.792 122.796 139.448 123.263 137.537L127.525 120.127C127.525 120.127 137.733 129.543 152.263 137.398C162.966 143.187 176.318 138.821 181.501 127.81C184.572 121.286 188.029 113.576 191.164 105.727L167.56 96.4899Z" fill="white"/>
<path d="M64.0275 141.222C62.776 141.222 61.6098 140.662 60.8279 139.684C60.0458 138.706 59.7547 137.445 60.029 136.226L67.4025 103.383C68.0566 100.469 67.5847 97.4462 66.0742 94.8702C65.9538 94.6653 66.0223 94.3998 66.2277 94.2808C66.4329 94.1598 66.6967 94.2281 66.817 94.435C68.4386 97.1984 68.9451 100.444 68.2431 103.572L60.8694 136.413C60.6529 137.377 60.8829 138.374 61.5005 139.145C62.118 139.918 63.039 140.361 64.0275 140.361C64.2655 140.361 64.4583 140.552 64.4583 140.79C64.4583 141.03 64.2655 141.222 64.0275 141.222Z" fill="black"/>
<path d="M119.118 141.222H116.184C115.946 141.222 115.753 141.03 115.753 140.79C115.753 140.552 115.946 140.361 116.184 140.361H119.118C120.89 140.361 122.423 139.157 122.845 137.434L127.107 120.026C127.143 119.877 127.255 119.76 127.401 119.715C127.548 119.671 127.705 119.708 127.817 119.811C127.919 119.905 138.157 129.282 152.468 137.02C157.548 139.768 163.362 140.289 168.838 138.488C174.3 136.692 178.659 132.834 181.111 127.627C184.796 119.801 188.044 112.378 190.764 105.567C190.852 105.346 191.103 105.239 191.324 105.327C191.544 105.414 191.653 105.666 191.564 105.887C188.838 112.713 185.582 120.153 181.889 127.994C179.338 133.419 174.796 137.436 169.107 139.307C163.405 141.181 157.349 140.64 152.059 137.779C139.513 130.995 130.074 122.957 127.773 120.927L123.682 137.641C123.165 139.748 121.288 141.222 119.118 141.222Z" fill="black"/>
<path d="M160.519 107.704C160.402 107.704 160.291 107.657 160.209 107.573C160.01 107.366 140.256 86.9449 134.269 82.3841C133.986 82.1674 133.709 81.9508 133.432 81.7342C127.877 77.3959 122.63 73.2956 72.8538 81.8181C72.616 81.8591 72.3963 81.701 72.3565 81.4668C72.3161 81.2307 72.4738 81.0082 72.7083 80.9692C122.86 72.3823 128.253 76.5957 133.962 81.0551C134.235 81.2697 134.51 81.4844 134.789 81.6971C140.443 86.0042 157.607 103.648 160.453 106.585C161.409 105.124 164.511 100.374 167.199 96.2538C167.33 96.0548 167.595 96.0001 167.794 96.1289C167.993 96.2597 168.05 96.527 167.921 96.7261C164.698 101.664 160.88 107.508 160.88 107.508C160.808 107.618 160.691 107.69 160.56 107.702C160.547 107.704 160.533 107.704 160.519 107.704Z" fill="black"/>
<path d="M127.809 119.28C127.792 119.28 127.776 119.28 127.758 119.278C127.522 119.249 127.353 119.036 127.381 118.8C127.92 114.171 129.037 109.618 130.702 105.266C130.786 105.044 131.038 104.932 131.258 105.018C131.481 105.102 131.592 105.352 131.506 105.574C129.867 109.858 128.767 114.341 128.236 118.9C128.211 119.118 128.025 119.28 127.809 119.28Z" fill="black"/>
<path d="M164.975 113.691C164.829 113.691 164.687 113.617 164.607 113.482C163.545 111.703 162.258 110.065 160.779 108.613C160.607 108.447 160.605 108.174 160.773 108.004C160.939 107.835 161.212 107.833 161.382 107.998C162.913 109.501 164.246 111.197 165.346 113.039C165.467 113.244 165.401 113.51 165.196 113.631C165.127 113.672 165.051 113.691 164.975 113.691Z" fill="black"/>
<path d="M18.7885 180.834H30.0569C34.5572 180.834 38.4716 184.191 38.8737 188.674C38.9034 189.004 38.9143 189.339 38.9033 189.677C38.751 194.402 44.5416 194.86 45.3036 189.677C46.0654 184.494 46.5227 180.834 46.5227 180.834L48.7287 175.407C40.8349 173.028 31.0692 173.446 20.2696 175.407C19.6691 177.37 19.1683 179.191 18.7885 180.834Z" fill="white"/>
<path d="M19.333 180.403H30.0569C34.8274 180.403 38.8891 184.02 39.3031 188.635C39.3345 188.99 39.345 189.345 39.3337 189.691C39.266 191.795 40.4506 192.846 41.6545 192.954C42.9561 193.067 44.516 192.074 44.8773 189.613C45.63 184.494 46.0906 180.819 46.0953 180.782C46.0997 180.745 46.1095 180.708 46.1235 180.673L48.1503 175.686C41.1299 173.686 32.1095 173.719 20.6048 175.786C20.0927 177.474 19.6658 179.024 19.333 180.403ZM41.8589 193.824C41.7647 193.824 41.6709 193.82 41.578 193.812C40.0224 193.674 38.3872 192.316 38.473 189.662C38.4828 189.353 38.4734 189.033 38.4447 188.713C38.0703 184.537 34.3861 181.266 30.0569 181.266H18.7887C18.6574 181.266 18.5334 181.205 18.4516 181.104C18.3697 181.001 18.3394 180.866 18.3687 180.739C18.7374 179.143 19.238 177.308 19.8576 175.282C19.9048 175.128 20.034 175.013 20.1926 174.984C32.2092 172.802 41.5843 172.806 48.8528 174.996C48.9689 175.031 49.0649 175.113 49.1173 175.222C49.1694 175.331 49.1733 175.458 49.1279 175.569L46.9429 180.946C46.8818 181.428 46.4328 184.956 45.7297 189.74C45.311 192.587 43.484 193.824 41.8589 193.824Z" fill="black"/>
<path d="M189.404 105.541C189.351 105.541 189.299 105.533 189.248 105.512L168.19 97.3193C167.968 97.2335 167.859 96.9837 167.944 96.7631C168.03 96.5407 168.28 96.4294 168.502 96.5173L189.56 104.71C189.783 104.796 189.892 105.046 189.806 105.268C189.74 105.438 189.578 105.541 189.404 105.541Z" fill="black"/>
<path d="M200.807 325.72C200.807 322.003 197.797 318.987 194.082 318.987C190.37 318.987 187.358 322.003 187.358 325.72C187.358 329.44 190.37 332.455 194.082 332.455C197.797 332.455 200.807 329.44 200.807 325.72Z" fill="#78E69D"/>
<path d="M220.431 325.72C220.431 322.003 217.42 318.987 213.708 318.987C209.994 318.987 206.983 322.003 206.983 325.72C206.983 329.44 209.994 332.455 213.708 332.455C217.42 332.455 220.431 329.44 220.431 325.72Z" fill="#78E69D"/>
<path d="M240.056 325.72C240.056 322.003 237.044 318.987 233.332 318.987C229.617 318.987 226.607 322.003 226.607 325.72C226.607 329.44 229.617 332.455 233.332 332.455C237.044 332.455 240.056 329.44 240.056 325.72Z" fill="#78E69D"/>
<path d="M304.141 326.152H247.085C246.847 326.152 246.654 325.958 246.654 325.72C246.654 325.482 246.847 325.291 247.085 325.291H303.711V304.725C303.711 304.485 303.903 304.294 304.141 304.294C304.381 304.294 304.572 304.485 304.572 304.725V325.72C304.572 325.958 304.381 326.152 304.141 326.152Z" fill="black"/>
</svg>
