<svg xmlns="http://www.w3.org/2000/svg" width="150" height="36" viewBox="0 0 125 30" fill="none">
  <path fill-rule="evenodd" clip-rule="evenodd" d="M0 0H40.8333C44.0583 0 46.6667 2.60833 46.6667 5.83333V30H5.83333C2.60833 30 0 27.3917 0 24.1667V0Z" fill="#1D7139"/>
  <path d="M11.6833 21.6668H5.49164V7.48346H11.45C13.8083 7.48346 16.6083 7.85013 16.6083 10.9751C16.6083 13.0251 15.3416 13.9501 13.925 14.2168V14.2585C15.65 14.5668 16.95 15.3918 16.95 17.7501C16.95 20.8335 14.075 21.6751 11.6833 21.6751V21.6668ZM9.24997 10.4168V13.1418H11.0666C12.45 13.1418 12.9666 12.6085 12.9666 11.7835C12.9666 10.9585 12.45 10.4251 11.1083 10.4251H9.24997V10.4168ZM9.24997 15.7835V18.7918H11.1666C12.6 18.7918 13.2166 18.2335 13.2166 17.2585C13.2166 16.2835 12.5833 15.7835 11.125 15.7835H9.24997ZM29.3166 21.6668H18.375V21.3585C18.375 19.3085 18.6583 17.2751 22.4 14.8835C24.6416 13.4501 25.5083 13.0835 25.5083 11.7001C25.5083 10.8751 24.975 10.4001 24.075 10.4001C23.175 10.4001 21.95 11.1085 21.125 12.2585L18.4583 10.3001C19.7833 8.47513 21.4833 7.2168 24.1916 7.2168C27.4083 7.2168 29.2333 8.82513 29.2333 11.4335C29.2333 12.8668 29.025 14.2668 26.3 15.9918C24.4583 17.1585 23.0583 18.0585 22.9833 18.7168H29.325V21.6668H29.3166ZM37.5416 21.6668H31.35V7.48346H37.3083C39.6666 7.48346 42.4666 7.85013 42.4666 10.9751C42.4666 13.0251 41.2 13.9501 39.7833 14.2168V14.2585C41.5083 14.5668 42.8083 15.3918 42.8083 17.7501C42.8083 20.8335 39.9333 21.6751 37.5416 21.6751V21.6668ZM35.1083 10.4168V13.1418H36.9333C38.3166 13.1418 38.8333 12.6085 38.8333 11.7835C38.8333 10.9585 38.3166 10.4251 36.975 10.4251H35.1166L35.1083 10.4168ZM35.1083 15.7835V18.7918H37.025C38.4666 18.7918 39.075 18.2335 39.075 17.2585C39.075 16.2835 38.4416 15.7835 36.9833 15.7835H35.1083Z" fill="white"/>
  <path d="M53.2333 10.0334V13.9084H55.3583C57.1583 13.9084 58.025 13.3917 58.025 11.9501C58.025 10.5084 57.1666 10.0334 55.3583 10.0334H53.2333ZM53.2333 21.6667H50.1666V7.4834H55.4916C58.9833 7.4834 61.0666 8.7334 61.0666 11.8751C61.0666 14.1167 60.0166 15.3417 58.1166 15.9167L61.2833 21.6667H57.9833L55.0333 16.3167H53.2333V21.6667ZM68.05 21.8751C65.3833 21.8751 62.8333 20.5167 62.8333 16.5667C62.8333 12.6167 65.8583 11.2417 67.9666 11.2417C70.075 11.2417 72.6583 12.2917 72.6583 16.9334V17.3917H65.8916C66.0416 19.0751 66.9833 19.7334 68.2666 19.7334C69.475 19.7334 70.6083 19.1417 71.2916 18.5084L72.4833 20.3501C71.2916 21.3667 69.8166 21.8834 68.0333 21.8834L68.05 21.8751ZM65.9416 15.5667H69.9083C69.7583 14.1334 69.1 13.4417 67.95 13.4417C66.9916 13.4417 66.1666 14.0751 65.9333 15.5667H65.9416ZM80.0083 21.6834H76.9L73.2416 11.4501H76.425L78.575 18.2501H78.6166L80.7666 11.4501H83.6583L80.0166 21.6834H80.0083ZM88 10.0501H84.8916V7.57507H88V10.0501ZM87.9833 21.6667H84.9166V11.4501H87.9833V21.6667ZM95.0916 21.8751C92.425 21.8751 89.875 20.5167 89.875 16.5667C89.875 12.6167 92.9 11.2417 95.0083 11.2417C97.1166 11.2417 99.7083 12.2917 99.7083 16.9334V17.3917H92.9416C93.0916 19.0751 94.0333 19.7334 95.3166 19.7334C96.525 19.7334 97.6583 19.1417 98.3416 18.5084L99.5333 20.3501C98.3416 21.3667 96.8666 21.8834 95.0833 21.8834L95.0916 21.8751ZM92.9833 15.5667H96.95C96.8 14.1334 96.1416 13.4417 94.9916 13.4417C94.0333 13.4417 93.2083 14.0751 92.975 15.5667H92.9833ZM106.192 21.6584H103.358L100.367 11.4417H103.475L104.358 15.1001C104.625 16.1751 104.8 16.9001 105.033 18.2251H105.075C105.325 16.8834 105.5 16.1334 105.783 15.0251L106.667 11.4417H109.067L110.008 15.0834C110.317 16.1584 110.467 16.9001 110.733 18.2251H110.775C111.025 16.9251 111.2 16.1751 111.483 15.1167L112.425 11.4334H115.167L112.175 21.6501H109.317L107.783 15.4251H107.742L106.208 21.6501L106.192 21.6584ZM120.375 21.8667C118.133 21.8667 116.633 21.1751 115.6 20.2917L116.825 18.5667C117.742 19.3751 119.125 19.8917 120.375 19.8917C121.333 19.8917 122.008 19.5667 122.008 18.8917C122.008 18.1834 121.475 17.9167 120.075 17.6667C118.142 17.3251 116.067 16.8584 116.067 14.4667C116.067 12.4167 117.75 11.2251 120.033 11.2251C122.125 11.2251 123.392 11.7584 124.517 12.6584L123.308 14.4001C122.275 13.6917 121.258 13.2917 120.3 13.2917C119.417 13.2917 118.917 13.6334 118.917 14.1917C118.917 14.8084 119.475 15.0501 120.733 15.2834C122.75 15.6251 124.875 16.0917 124.875 18.4084C124.875 20.8834 122.725 21.8584 120.375 21.8584V21.8667Z" fill="#232323"/>
</svg>
